$MeshFormat
4.1 0 8
$EndMeshFormat
$PhysicalNames
6
1 1 "left_bottom"
1 2 "bottom"
1 3 "right"
1 4 "top"
1 5 "left_top"
2 10 "domain"
$EndPhysicalNames
$Entities
5 5 1 0
1 0 0 0 0
2 1.0 0 0 0
3 1.0 1.0 0 0
4 0 1.0 0 0
5 0 0.4 0 0
1 0 0 0 1.0 0 0 1 2 2 1 -2
2 1.0 0 0 1.0 1.0 0 1 3 2 2 -3
3 0 1.0 0 1.0 1.0 0 1 4 2 3 -4
4 0 0.4 0 0 1.0 0 1 5 2 4 -5
5 0 0 0 0 0.4 0 1 1 2 5 -1
1 0 0 0 1.0 1.0 0 1 10 5 1 2 3 4 5
$EndEntities
$Nodes
11 121 1 121
0 1 0 1
1
0.0 0.0 0
0 2 0 1
2
1.0 0.0 0
0 3 0 1
3
1.0 1.0 0
0 4 0 1
4
0.0 1.0 0
0 5 0 1
5
0.0 0.4 0
1 1 0 9
6
7
8
9
10
11
12
13
14
0.1 0.0 0
0.2 0.0 0
0.3 0.0 0
0.4 0.0 0
0.5 0.0 0
0.6 0.0 0
0.7 0.0 0
0.8 0.0 0
0.9 0.0 0
1 2 0 9
15
16
17
18
19
20
21
22
23
1.0 0.1 0
1.0 0.2 0
1.0 0.3 0
1.0 0.4 0
1.0 0.5 0
1.0 0.6 0
1.0 0.7 0
1.0 0.8 0
1.0 0.9 0
1 3 0 9
24
25
26
27
28
29
30
31
32
0.9 1.0 0
0.8 1.0 0
0.7 1.0 0
0.6 1.0 0
0.5 1.0 0
0.4 1.0 0
0.3 1.0 0
0.2 1.0 0
0.1 1.0 0
1 4 0 5
33
34
35
36
37
0.0 0.9 0
0.0 0.8 0
0.0 0.7 0
0.0 0.6 0
0.0 0.5 0
1 5 0 3
38
39
40
0.0 0.3 0
0.0 0.2 0
0.0 0.1 0
2 1 0 81
41
42
43
44
45
46
47
48
49
50
51
52
53
54
55
56
57
58
59
60
61
62
63
64
65
66
67
68
69
70
71
72
73
74
75
76
77
78
79
80
81
82
83
84
85
86
87
88
89
90
91
92
93
94
95
96
97
98
99
100
101
102
103
104
105
106
107
108
109
110
111
112
113
114
115
116
117
118
119
120
121
0.1 0.1 0
0.2 0.1 0
0.3 0.1 0
0.4 0.1 0
0.5 0.1 0
0.6 0.1 0
0.7 0.1 0
0.8 0.1 0
0.9 0.1 0
0.1 0.2 0
0.2 0.2 0
0.3 0.2 0
0.4 0.2 0
0.5 0.2 0
0.6 0.2 0
0.7 0.2 0
0.8 0.2 0
0.9 0.2 0
0.1 0.3 0
0.2 0.3 0
0.3 0.3 0
0.4 0.3 0
0.5 0.3 0
0.6 0.3 0
0.7 0.3 0
0.8 0.3 0
0.9 0.3 0
0.1 0.4 0
0.2 0.4 0
0.3 0.4 0
0.4 0.4 0
0.5 0.4 0
0.6 0.4 0
0.7 0.4 0
0.8 0.4 0
0.9 0.4 0
0.1 0.5 0
0.2 0.5 0
0.3 0.5 0
0.4 0.5 0
0.5 0.5 0
0.6 0.5 0
0.7 0.5 0
0.8 0.5 0
0.9 0.5 0
0.1 0.6 0
0.2 0.6 0
0.3 0.6 0
0.4 0.6 0
0.5 0.6 0
0.6 0.6 0
0.7 0.6 0
0.8 0.6 0
0.9 0.6 0
0.1 0.7 0
0.2 0.7 0
0.3 0.7 0
0.4 0.7 0
0.5 0.7 0
0.6 0.7 0
0.7 0.7 0
0.8 0.7 0
0.9 0.7 0
0.1 0.8 0
0.2 0.8 0
0.3 0.8 0
0.4 0.8 0
0.5 0.8 0
0.6 0.8 0
0.7 0.8 0
0.8 0.8 0
0.9 0.8 0
0.1 0.9 0
0.2 0.9 0
0.3 0.9 0
0.4 0.9 0
0.5 0.9 0
0.6 0.9 0
0.7 0.9 0
0.8 0.9 0
0.9 0.9 0
$EndNodes
$Elements
6 140 1 140
1 1 1 10
1 1 6
2 6 7
3 7 8
4 8 9
5 9 10
6 10 11
7 11 12
8 12 13
9 13 14
10 14 2
1 2 1 10
11 2 15
12 15 16
13 16 17
14 17 18
15 18 19
16 19 20
17 20 21
18 21 22
19 22 23
20 23 3
1 3 1 10
21 3 24
22 24 25
23 25 26
24 26 27
25 27 28
26 28 29
27 29 30
28 30 31
29 31 32
30 32 4
1 4 1 6
31 4 33
32 33 34
33 34 35
34 35 36
35 36 37
36 37 5
1 5 1 4
37 5 38
38 38 39
39 39 40
40 40 1
2 1 3 100
41 1 6 41 40
42 6 7 42 41
43 7 8 43 42
44 8 9 44 43
45 9 10 45 44
46 10 11 46 45
47 11 12 47 46
48 12 13 48 47
49 13 14 49 48
50 14 2 15 49
51 40 41 50 39
52 41 42 51 50
53 42 43 52 51
54 43 44 53 52
55 44 45 54 53
56 45 46 55 54
57 46 47 56 55
58 47 48 57 56
59 48 49 58 57
60 49 15 16 58
61 39 50 59 38
62 50 51 60 59
63 51 52 61 60
64 52 53 62 61
65 53 54 63 62
66 54 55 64 63
67 55 56 65 64
68 56 57 66 65
69 57 58 67 66
70 58 16 17 67
71 38 59 68 5
72 59 60 69 68
73 60 61 70 69
74 61 62 71 70
75 62 63 72 71
76 63 64 73 72
77 64 65 74 73
78 65 66 75 74
79 66 67 76 75
80 67 17 18 76
81 5 68 77 37
82 68 69 78 77
83 69 70 79 78
84 70 71 80 79
85 71 72 81 80
86 72 73 82 81
87 73 74 83 82
88 74 75 84 83
89 75 76 85 84
90 76 18 19 85
91 37 77 86 36
92 77 78 87 86
93 78 79 88 87
94 79 80 89 88
95 80 81 90 89
96 81 82 91 90
97 82 83 92 91
98 83 84 93 92
99 84 85 94 93
100 85 19 20 94
101 36 86 95 35
102 86 87 96 95
103 87 88 97 96
104 88 89 98 97
105 89 90 99 98
106 90 91 100 99
107 91 92 101 100
108 92 93 102 101
109 93 94 103 102
110 94 20 21 103
111 35 95 104 34
112 95 96 105 104
113 96 97 106 105
114 97 98 107 106
115 98 99 108 107
116 99 100 109 108
117 100 101 110 109
118 101 102 111 110
119 102 103 112 111
120 103 21 22 112
121 34 104 113 33
122 104 105 114 113
123 105 106 115 114
124 106 107 116 115
125 107 108 117 116
126 108 109 118 117
127 109 110 119 118
128 110 111 120 119
129 111 112 121 120
130 112 22 23 121
131 33 113 32 4
132 113 114 31 32
133 114 115 30 31
134 115 116 29 30
135 116 117 28 29
136 117 118 27 28
137 118 119 26 27
138 119 120 25 26
139 120 121 24 25
140 121 23 3 24
$EndElements
