$MeshFormat
4.1 0 8
$EndMeshFormat
$PhysicalNames
6
1 1 "left_bottom"
1 2 "bottom"
1 3 "right"
1 4 "top"
1 5 "left_top"
2 10 "domain"
$EndPhysicalNames
$Entities
5 5 1 0
1 0 0 0 0
2 1.0 0 0 0
3 1.0 1.0 0 0
4 0 1.0 0 0
5 0 0.4 0 0
1 0 0 0 1.0 0 0 1 2 2 1 -2
2 1.0 0 0 1.0 1.0 0 1 3 2 2 -3
3 0 1.0 0 1.0 1.0 0 1 4 2 3 -4
4 0 0.4 0 0 1.0 0 1 5 2 4 -5
5 0 0 0 0 0.4 0 1 1 2 5 -1
1 0 0 0 1.0 1.0 0 1 10 5 1 2 3 4 5
$EndEntities
$Nodes
11 1681 1 1681
0 1 0 1
1
0.0 0.0 0
0 2 0 1
2
1.0 0.0 0
0 3 0 1
3
1.0 1.0 0
0 4 0 1
4
0.0 1.0 0
0 5 0 1
5
0.0 0.4 0
1 1 0 39
6
7
8
9
10
11
12
13
14
15
16
17
18
19
20
21
22
23
24
25
26
27
28
29
30
31
32
33
34
35
36
37
38
39
40
41
42
43
44
0.025 0.0 0
0.05 0.0 0
0.075 0.0 0
0.1 0.0 0
0.125 0.0 0
0.15 0.0 0
0.175 0.0 0
0.2 0.0 0
0.225 0.0 0
0.25 0.0 0
0.275 0.0 0
0.3 0.0 0
0.325 0.0 0
0.35 0.0 0
0.375 0.0 0
0.4 0.0 0
0.425 0.0 0
0.45 0.0 0
0.475 0.0 0
0.5 0.0 0
0.525 0.0 0
0.55 0.0 0
0.575 0.0 0
0.6 0.0 0
0.625 0.0 0
0.65 0.0 0
0.675 0.0 0
0.7 0.0 0
0.725 0.0 0
0.75 0.0 0
0.775 0.0 0
0.8 0.0 0
0.825 0.0 0
0.85 0.0 0
0.875 0.0 0
0.9 0.0 0
0.925 0.0 0
0.95 0.0 0
0.975 0.0 0
1 2 0 39
45
46
47
48
49
50
51
52
53
54
55
56
57
58
59
60
61
62
63
64
65
66
67
68
69
70
71
72
73
74
75
76
77
78
79
80
81
82
83
1.0 0.025 0
1.0 0.05 0
1.0 0.075 0
1.0 0.1 0
1.0 0.125 0
1.0 0.15 0
1.0 0.175 0
1.0 0.2 0
1.0 0.225 0
1.0 0.25 0
1.0 0.275 0
1.0 0.3 0
1.0 0.325 0
1.0 0.35 0
1.0 0.375 0
1.0 0.4 0
1.0 0.425 0
1.0 0.45 0
1.0 0.475 0
1.0 0.5 0
1.0 0.525 0
1.0 0.55 0
1.0 0.575 0
1.0 0.6 0
1.0 0.625 0
1.0 0.65 0
1.0 0.675 0
1.0 0.7 0
1.0 0.725 0
1.0 0.75 0
1.0 0.775 0
1.0 0.8 0
1.0 0.825 0
1.0 0.85 0
1.0 0.875 0
1.0 0.9 0
1.0 0.925 0
1.0 0.95 0
1.0 0.975 0
1 3 0 39
84
85
86
87
88
89
90
91
92
93
94
95
96
97
98
99
100
101
102
103
104
105
106
107
108
109
110
111
112
113
114
115
116
117
118
119
120
121
122
0.975 1.0 0
0.95 1.0 0
0.925 1.0 0
0.9 1.0 0
0.875 1.0 0
0.85 1.0 0
0.825 1.0 0
0.8 1.0 0
0.775 1.0 0
0.75 1.0 0
0.725 1.0 0
0.7 1.0 0
0.675 1.0 0
0.65 1.0 0
0.625 1.0 0
0.6 1.0 0
0.575 1.0 0
0.55 1.0 0
0.525 1.0 0
0.5 1.0 0
0.475 1.0 0
0.45 1.0 0
0.425 1.0 0
0.4 1.0 0
0.375 1.0 0
0.35 1.0 0
0.325 1.0 0
0.3 1.0 0
0.275 1.0 0
0.25 1.0 0
0.225 1.0 0
0.2 1.0 0
0.175 1.0 0
0.15 1.0 0
0.125 1.0 0
0.1 1.0 0
0.075 1.0 0
0.05 1.0 0
0.025 1.0 0
1 4 0 23
123
124
125
126
127
128
129
130
131
132
133
134
135
136
137
138
139
140
141
142
143
144
145
0.0 0.975 0
0.0 0.95 0
0.0 0.925 0
0.0 0.9 0
0.0 0.875 0
0.0 0.85 0
0.0 0.825 0
0.0 0.8 0
0.0 0.775 0
0.0 0.75 0
0.0 0.725 0
0.0 0.7 0
0.0 0.675 0
0.0 0.65 0
0.0 0.625 0
0.0 0.6 0
0.0 0.575 0
0.0 0.55 0
0.0 0.525 0
0.0 0.5 0
0.0 0.475 0
0.0 0.45 0
0.0 0.425 0
1 5 0 15
146
147
148
149
150
151
152
153
154
155
156
157
158
159
160
0.0 0.375 0
0.0 0.35 0
0.0 0.325 0
0.0 0.3 0
0.0 0.275 0
0.0 0.25 0
0.0 0.225 0
0.0 0.2 0
0.0 0.175 0
0.0 0.15 0
0.0 0.125 0
0.0 0.1 0
0.0 0.075 0
0.0 0.05 0
0.0 0.025 0
2 1 0 1521
161
162
163
164
165
166
167
168
169
170
171
172
173
174
175
176
177
178
179
180
181
182
183
184
185
186
187
188
189
190
191
192
193
194
195
196
197
198
199
200
201
202
203
204
205
206
207
208
209
210
211
212
213
214
215
216
217
218
219
220
221
222
223
224
225
226
227
228
229
230
231
232
233
234
235
236
237
238
239
240
241
242
243
244
245
246
247
248
249
250
251
252
253
254
255
256
257
258
259
260
261
262
263
264
265
266
267
268
269
270
271
272
273
274
275
276
277
278
279
280
281
282
283
284
285
286
287
288
289
290
291
292
293
294
295
296
297
298
299
300
301
302
303
304
305
306
307
308
309
310
311
312
313
314
315
316
317
318
319
320
321
322
323
324
325
326
327
328
329
330
331
332
333
334
335
336
337
338
339
340
341
342
343
344
345
346
347
348
349
350
351
352
353
354
355
356
357
358
359
360
361
362
363
364
365
366
367
368
369
370
371
372
373
374
375
376
377
378
379
380
381
382
383
384
385
386
387
388
389
390
391
392
393
394
395
396
397
398
399
400
401
402
403
404
405
406
407
408
409
410
411
412
413
414
415
416
417
418
419
420
421
422
423
424
425
426
427
428
429
430
431
432
433
434
435
436
437
438
439
440
441
442
443
444
445
446
447
448
449
450
451
452
453
454
455
456
457
458
459
460
461
462
463
464
465
466
467
468
469
470
471
472
473
474
475
476
477
478
479
480
481
482
483
484
485
486
487
488
489
490
491
492
493
494
495
496
497
498
499
500
501
502
503
504
505
506
507
508
509
510
511
512
513
514
515
516
517
518
519
520
521
522
523
524
525
526
527
528
529
530
531
532
533
534
535
536
537
538
539
540
541
542
543
544
545
546
547
548
549
550
551
552
553
554
555
556
557
558
559
560
561
562
563
564
565
566
567
568
569
570
571
572
573
574
575
576
577
578
579
580
581
582
583
584
585
586
587
588
589
590
591
592
593
594
595
596
597
598
599
600
601
602
603
604
605
606
607
608
609
610
611
612
613
614
615
616
617
618
619
620
621
622
623
624
625
626
627
628
629
630
631
632
633
634
635
636
637
638
639
640
641
642
643
644
645
646
647
648
649
650
651
652
653
654
655
656
657
658
659
660
661
662
663
664
665
666
667
668
669
670
671
672
673
674
675
676
677
678
679
680
681
682
683
684
685
686
687
688
689
690
691
692
693
694
695
696
697
698
699
700
701
702
703
704
705
706
707
708
709
710
711
712
713
714
715
716
717
718
719
720
721
722
723
724
725
726
727
728
729
730
731
732
733
734
735
736
737
738
739
740
741
742
743
744
745
746
747
748
749
750
751
752
753
754
755
756
757
758
759
760
761
762
763
764
765
766
767
768
769
770
771
772
773
774
775
776
777
778
779
780
781
782
783
784
785
786
787
788
789
790
791
792
793
794
795
796
797
798
799
800
801
802
803
804
805
806
807
808
809
810
811
812
813
814
815
816
817
818
819
820
821
822
823
824
825
826
827
828
829
830
831
832
833
834
835
836
837
838
839
840
841
842
843
844
845
846
847
848
849
850
851
852
853
854
855
856
857
858
859
860
861
862
863
864
865
866
867
868
869
870
871
872
873
874
875
876
877
878
879
880
881
882
883
884
885
886
887
888
889
890
891
892
893
894
895
896
897
898
899
900
901
902
903
904
905
906
907
908
909
910
911
912
913
914
915
916
917
918
919
920
921
922
923
924
925
926
927
928
929
930
931
932
933
934
935
936
937
938
939
940
941
942
943
944
945
946
947
948
949
950
951
952
953
954
955
956
957
958
959
960
961
962
963
964
965
966
967
968
969
970
971
972
973
974
975
976
977
978
979
980
981
982
983
984
985
986
987
988
989
990
991
992
993
994
995
996
997
998
999
1000
1001
1002
1003
1004
1005
1006
1007
1008
1009
1010
1011
1012
1013
1014
1015
1016
1017
1018
1019
1020
1021
1022
1023
1024
1025
1026
1027
1028
1029
1030
1031
1032
1033
1034
1035
1036
1037
1038
1039
1040
1041
1042
1043
1044
1045
1046
1047
1048
1049
1050
1051
1052
1053
1054
1055
1056
1057
1058
1059
1060
1061
1062
1063
1064
1065
1066
1067
1068
1069
1070
1071
1072
1073
1074
1075
1076
1077
1078
1079
1080
1081
1082
1083
1084
1085
1086
1087
1088
1089
1090
1091
1092
1093
1094
1095
1096
1097
1098
1099
1100
1101
1102
1103
1104
1105
1106
1107
1108
1109
1110
1111
1112
1113
1114
1115
1116
1117
1118
1119
1120
1121
1122
1123
1124
1125
1126
1127
1128
1129
1130
1131
1132
1133
1134
1135
1136
1137
1138
1139
1140
1141
1142
1143
1144
1145
1146
1147
1148
1149
1150
1151
1152
1153
1154
1155
1156
1157
1158
1159
1160
1161
1162
1163
1164
1165
1166
1167
1168
1169
1170
1171
1172
1173
1174
1175
1176
1177
1178
1179
1180
1181
1182
1183
1184
1185
1186
1187
1188
1189
1190
1191
1192
1193
1194
1195
1196
1197
1198
1199
1200
1201
1202
1203
1204
1205
1206
1207
1208
1209
1210
1211
1212
1213
1214
1215
1216
1217
1218
1219
1220
1221
1222
1223
1224
1225
1226
1227
1228
1229
1230
1231
1232
1233
1234
1235
1236
1237
1238
1239
1240
1241
1242
1243
1244
1245
1246
1247
1248
1249
1250
1251
1252
1253
1254
1255
1256
1257
1258
1259
1260
1261
1262
1263
1264
1265
1266
1267
1268
1269
1270
1271
1272
1273
1274
1275
1276
1277
1278
1279
1280
1281
1282
1283
1284
1285
1286
1287
1288
1289
1290
1291
1292
1293
1294
1295
1296
1297
1298
1299
1300
1301
1302
1303
1304
1305
1306
1307
1308
1309
1310
1311
1312
1313
1314
1315
1316
1317
1318
1319
1320
1321
1322
1323
1324
1325
1326
1327
1328
1329
1330
1331
1332
1333
1334
1335
1336
1337
1338
1339
1340
1341
1342
1343
1344
1345
1346
1347
1348
1349
1350
1351
1352
1353
1354
1355
1356
1357
1358
1359
1360
1361
1362
1363
1364
1365
1366
1367
1368
1369
1370
1371
1372
1373
1374
1375
1376
1377
1378
1379
1380
1381
1382
1383
1384
1385
1386
1387
1388
1389
1390
1391
1392
1393
1394
1395
1396
1397
1398
1399
1400
1401
1402
1403
1404
1405
1406
1407
1408
1409
1410
1411
1412
1413
1414
1415
1416
1417
1418
1419
1420
1421
1422
1423
1424
1425
1426
1427
1428
1429
1430
1431
1432
1433
1434
1435
1436
1437
1438
1439
1440
1441
1442
1443
1444
1445
1446
1447
1448
1449
1450
1451
1452
1453
1454
1455
1456
1457
1458
1459
1460
1461
1462
1463
1464
1465
1466
1467
1468
1469
1470
1471
1472
1473
1474
1475
1476
1477
1478
1479
1480
1481
1482
1483
1484
1485
1486
1487
1488
1489
1490
1491
1492
1493
1494
1495
1496
1497
1498
1499
1500
1501
1502
1503
1504
1505
1506
1507
1508
1509
1510
1511
1512
1513
1514
1515
1516
1517
1518
1519
1520
1521
1522
1523
1524
1525
1526
1527
1528
1529
1530
1531
1532
1533
1534
1535
1536
1537
1538
1539
1540
1541
1542
1543
1544
1545
1546
1547
1548
1549
1550
1551
1552
1553
1554
1555
1556
1557
1558
1559
1560
1561
1562
1563
1564
1565
1566
1567
1568
1569
1570
1571
1572
1573
1574
1575
1576
1577
1578
1579
1580
1581
1582
1583
1584
1585
1586
1587
1588
1589
1590
1591
1592
1593
1594
1595
1596
1597
1598
1599
1600
1601
1602
1603
1604
1605
1606
1607
1608
1609
1610
1611
1612
1613
1614
1615
1616
1617
1618
1619
1620
1621
1622
1623
1624
1625
1626
1627
1628
1629
1630
1631
1632
1633
1634
1635
1636
1637
1638
1639
1640
1641
1642
1643
1644
1645
1646
1647
1648
1649
1650
1651
1652
1653
1654
1655
1656
1657
1658
1659
1660
1661
1662
1663
1664
1665
1666
1667
1668
1669
1670
1671
1672
1673
1674
1675
1676
1677
1678
1679
1680
1681
0.025 0.025 0
0.05 0.025 0
0.075 0.025 0
0.1 0.025 0
0.125 0.025 0
0.15 0.025 0
0.175 0.025 0
0.2 0.025 0
0.225 0.025 0
0.25 0.025 0
0.275 0.025 0
0.3 0.025 0
0.325 0.025 0
0.35 0.025 0
0.375 0.025 0
0.4 0.025 0
0.425 0.025 0
0.45 0.025 0
0.475 0.025 0
0.5 0.025 0
0.525 0.025 0
0.55 0.025 0
0.575 0.025 0
0.6 0.025 0
0.625 0.025 0
0.65 0.025 0
0.675 0.025 0
0.7 0.025 0
0.725 0.025 0
0.75 0.025 0
0.775 0.025 0
0.8 0.025 0
0.825 0.025 0
0.85 0.025 0
0.875 0.025 0
0.9 0.025 0
0.925 0.025 0
0.95 0.025 0
0.975 0.025 0
0.025 0.05 0
0.05 0.05 0
0.075 0.05 0
0.1 0.05 0
0.125 0.05 0
0.15 0.05 0
0.175 0.05 0
0.2 0.05 0
0.225 0.05 0
0.25 0.05 0
0.275 0.05 0
0.3 0.05 0
0.325 0.05 0
0.35 0.05 0
0.375 0.05 0
0.4 0.05 0
0.425 0.05 0
0.45 0.05 0
0.475 0.05 0
0.5 0.05 0
0.525 0.05 0
0.55 0.05 0
0.575 0.05 0
0.6 0.05 0
0.625 0.05 0
0.65 0.05 0
0.675 0.05 0
0.7 0.05 0
0.725 0.05 0
0.75 0.05 0
0.775 0.05 0
0.8 0.05 0
0.825 0.05 0
0.85 0.05 0
0.875 0.05 0
0.9 0.05 0
0.925 0.05 0
0.95 0.05 0
0.975 0.05 0
0.025 0.075 0
0.05 0.075 0
0.075 0.075 0
0.1 0.075 0
0.125 0.075 0
0.15 0.075 0
0.175 0.075 0
0.2 0.075 0
0.225 0.075 0
0.25 0.075 0
0.275 0.075 0
0.3 0.075 0
0.325 0.075 0
0.35 0.075 0
0.375 0.075 0
0.4 0.075 0
0.425 0.075 0
0.45 0.075 0
0.475 0.075 0
0.5 0.075 0
0.525 0.075 0
0.55 0.075 0
0.575 0.075 0
0.6 0.075 0
0.625 0.075 0
0.65 0.075 0
0.675 0.075 0
0.7 0.075 0
0.725 0.075 0
0.75 0.075 0
0.775 0.075 0
0.8 0.075 0
0.825 0.075 0
0.85 0.075 0
0.875 0.075 0
0.9 0.075 0
0.925 0.075 0
0.95 0.075 0
0.975 0.075 0
0.025 0.1 0
0.05 0.1 0
0.075 0.1 0
0.1 0.1 0
0.125 0.1 0
0.15 0.1 0
0.175 0.1 0
0.2 0.1 0
0.225 0.1 0
0.25 0.1 0
0.275 0.1 0
0.3 0.1 0
0.325 0.1 0
0.35 0.1 0
0.375 0.1 0
0.4 0.1 0
0.425 0.1 0
0.45 0.1 0
0.475 0.1 0
0.5 0.1 0
0.525 0.1 0
0.55 0.1 0
0.575 0.1 0
0.6 0.1 0
0.625 0.1 0
0.65 0.1 0
0.675 0.1 0
0.7 0.1 0
0.725 0.1 0
0.75 0.1 0
0.775 0.1 0
0.8 0.1 0
0.825 0.1 0
0.85 0.1 0
0.875 0.1 0
0.9 0.1 0
0.925 0.1 0
0.95 0.1 0
0.975 0.1 0
0.025 0.125 0
0.05 0.125 0
0.075 0.125 0
0.1 0.125 0
0.125 0.125 0
0.15 0.125 0
0.175 0.125 0
0.2 0.125 0
0.225 0.125 0
0.25 0.125 0
0.275 0.125 0
0.3 0.125 0
0.325 0.125 0
0.35 0.125 0
0.375 0.125 0
0.4 0.125 0
0.425 0.125 0
0.45 0.125 0
0.475 0.125 0
0.5 0.125 0
0.525 0.125 0
0.55 0.125 0
0.575 0.125 0
0.6 0.125 0
0.625 0.125 0
0.65 0.125 0
0.675 0.125 0
0.7 0.125 0
0.725 0.125 0
0.75 0.125 0
0.775 0.125 0
0.8 0.125 0
0.825 0.125 0
0.85 0.125 0
0.875 0.125 0
0.9 0.125 0
0.925 0.125 0
0.95 0.125 0
0.975 0.125 0
0.025 0.15 0
0.05 0.15 0
0.075 0.15 0
0.1 0.15 0
0.125 0.15 0
0.15 0.15 0
0.175 0.15 0
0.2 0.15 0
0.225 0.15 0
0.25 0.15 0
0.275 0.15 0
0.3 0.15 0
0.325 0.15 0
0.35 0.15 0
0.375 0.15 0
0.4 0.15 0
0.425 0.15 0
0.45 0.15 0
0.475 0.15 0
0.5 0.15 0
0.525 0.15 0
0.55 0.15 0
0.575 0.15 0
0.6 0.15 0
0.625 0.15 0
0.65 0.15 0
0.675 0.15 0
0.7 0.15 0
0.725 0.15 0
0.75 0.15 0
0.775 0.15 0
0.8 0.15 0
0.825 0.15 0
0.85 0.15 0
0.875 0.15 0
0.9 0.15 0
0.925 0.15 0
0.95 0.15 0
0.975 0.15 0
0.025 0.175 0
0.05 0.175 0
0.075 0.175 0
0.1 0.175 0
0.125 0.175 0
0.15 0.175 0
0.175 0.175 0
0.2 0.175 0
0.225 0.175 0
0.25 0.175 0
0.275 0.175 0
0.3 0.175 0
0.325 0.175 0
0.35 0.175 0
0.375 0.175 0
0.4 0.175 0
0.425 0.175 0
0.45 0.175 0
0.475 0.175 0
0.5 0.175 0
0.525 0.175 0
0.55 0.175 0
0.575 0.175 0
0.6 0.175 0
0.625 0.175 0
0.65 0.175 0
0.675 0.175 0
0.7 0.175 0
0.725 0.175 0
0.75 0.175 0
0.775 0.175 0
0.8 0.175 0
0.825 0.175 0
0.85 0.175 0
0.875 0.175 0
0.9 0.175 0
0.925 0.175 0
0.95 0.175 0
0.975 0.175 0
0.025 0.2 0
0.05 0.2 0
0.075 0.2 0
0.1 0.2 0
0.125 0.2 0
0.15 0.2 0
0.175 0.2 0
0.2 0.2 0
0.225 0.2 0
0.25 0.2 0
0.275 0.2 0
0.3 0.2 0
0.325 0.2 0
0.35 0.2 0
0.375 0.2 0
0.4 0.2 0
0.425 0.2 0
0.45 0.2 0
0.475 0.2 0
0.5 0.2 0
0.525 0.2 0
0.55 0.2 0
0.575 0.2 0
0.6 0.2 0
0.625 0.2 0
0.65 0.2 0
0.675 0.2 0
0.7 0.2 0
0.725 0.2 0
0.75 0.2 0
0.775 0.2 0
0.8 0.2 0
0.825 0.2 0
0.85 0.2 0
0.875 0.2 0
0.9 0.2 0
0.925 0.2 0
0.95 0.2 0
0.975 0.2 0
0.025 0.225 0
0.05 0.225 0
0.075 0.225 0
0.1 0.225 0
0.125 0.225 0
0.15 0.225 0
0.175 0.225 0
0.2 0.225 0
0.225 0.225 0
0.25 0.225 0
0.275 0.225 0
0.3 0.225 0
0.325 0.225 0
0.35 0.225 0
0.375 0.225 0
0.4 0.225 0
0.425 0.225 0
0.45 0.225 0
0.475 0.225 0
0.5 0.225 0
0.525 0.225 0
0.55 0.225 0
0.575 0.225 0
0.6 0.225 0
0.625 0.225 0
0.65 0.225 0
0.675 0.225 0
0.7 0.225 0
0.725 0.225 0
0.75 0.225 0
0.775 0.225 0
0.8 0.225 0
0.825 0.225 0
0.85 0.225 0
0.875 0.225 0
0.9 0.225 0
0.925 0.225 0
0.95 0.225 0
0.975 0.225 0
0.025 0.25 0
0.05 0.25 0
0.075 0.25 0
0.1 0.25 0
0.125 0.25 0
0.15 0.25 0
0.175 0.25 0
0.2 0.25 0
0.225 0.25 0
0.25 0.25 0
0.275 0.25 0
0.3 0.25 0
0.325 0.25 0
0.35 0.25 0
0.375 0.25 0
0.4 0.25 0
0.425 0.25 0
0.45 0.25 0
0.475 0.25 0
0.5 0.25 0
0.525 0.25 0
0.55 0.25 0
0.575 0.25 0
0.6 0.25 0
0.625 0.25 0
0.65 0.25 0
0.675 0.25 0
0.7 0.25 0
0.725 0.25 0
0.75 0.25 0
0.775 0.25 0
0.8 0.25 0
0.825 0.25 0
0.85 0.25 0
0.875 0.25 0
0.9 0.25 0
0.925 0.25 0
0.95 0.25 0
0.975 0.25 0
0.025 0.275 0
0.05 0.275 0
0.075 0.275 0
0.1 0.275 0
0.125 0.275 0
0.15 0.275 0
0.175 0.275 0
0.2 0.275 0
0.225 0.275 0
0.25 0.275 0
0.275 0.275 0
0.3 0.275 0
0.325 0.275 0
0.35 0.275 0
0.375 0.275 0
0.4 0.275 0
0.425 0.275 0
0.45 0.275 0
0.475 0.275 0
0.5 0.275 0
0.525 0.275 0
0.55 0.275 0
0.575 0.275 0
0.6 0.275 0
0.625 0.275 0
0.65 0.275 0
0.675 0.275 0
0.7 0.275 0
0.725 0.275 0
0.75 0.275 0
0.775 0.275 0
0.8 0.275 0
0.825 0.275 0
0.85 0.275 0
0.875 0.275 0
0.9 0.275 0
0.925 0.275 0
0.95 0.275 0
0.975 0.275 0
0.025 0.3 0
0.05 0.3 0
0.075 0.3 0
0.1 0.3 0
0.125 0.3 0
0.15 0.3 0
0.175 0.3 0
0.2 0.3 0
0.225 0.3 0
0.25 0.3 0
0.275 0.3 0
0.3 0.3 0
0.325 0.3 0
0.35 0.3 0
0.375 0.3 0
0.4 0.3 0
0.425 0.3 0
0.45 0.3 0
0.475 0.3 0
0.5 0.3 0
0.525 0.3 0
0.55 0.3 0
0.575 0.3 0
0.6 0.3 0
0.625 0.3 0
0.65 0.3 0
0.675 0.3 0
0.7 0.3 0
0.725 0.3 0
0.75 0.3 0
0.775 0.3 0
0.8 0.3 0
0.825 0.3 0
0.85 0.3 0
0.875 0.3 0
0.9 0.3 0
0.925 0.3 0
0.95 0.3 0
0.975 0.3 0
0.025 0.325 0
0.05 0.325 0
0.075 0.325 0
0.1 0.325 0
0.125 0.325 0
0.15 0.325 0
0.175 0.325 0
0.2 0.325 0
0.225 0.325 0
0.25 0.325 0
0.275 0.325 0
0.3 0.325 0
0.325 0.325 0
0.35 0.325 0
0.375 0.325 0
0.4 0.325 0
0.425 0.325 0
0.45 0.325 0
0.475 0.325 0
0.5 0.325 0
0.525 0.325 0
0.55 0.325 0
0.575 0.325 0
0.6 0.325 0
0.625 0.325 0
0.65 0.325 0
0.675 0.325 0
0.7 0.325 0
0.725 0.325 0
0.75 0.325 0
0.775 0.325 0
0.8 0.325 0
0.825 0.325 0
0.85 0.325 0
0.875 0.325 0
0.9 0.325 0
0.925 0.325 0
0.95 0.325 0
0.975 0.325 0
0.025 0.35 0
0.05 0.35 0
0.075 0.35 0
0.1 0.35 0
0.125 0.35 0
0.15 0.35 0
0.175 0.35 0
0.2 0.35 0
0.225 0.35 0
0.25 0.35 0
0.275 0.35 0
0.3 0.35 0
0.325 0.35 0
0.35 0.35 0
0.375 0.35 0
0.4 0.35 0
0.425 0.35 0
0.45 0.35 0
0.475 0.35 0
0.5 0.35 0
0.525 0.35 0
0.55 0.35 0
0.575 0.35 0
0.6 0.35 0
0.625 0.35 0
0.65 0.35 0
0.675 0.35 0
0.7 0.35 0
0.725 0.35 0
0.75 0.35 0
0.775 0.35 0
0.8 0.35 0
0.825 0.35 0
0.85 0.35 0
0.875 0.35 0
0.9 0.35 0
0.925 0.35 0
0.95 0.35 0
0.975 0.35 0
0.025 0.375 0
0.05 0.375 0
0.075 0.375 0
0.1 0.375 0
0.125 0.375 0
0.15 0.375 0
0.175 0.375 0
0.2 0.375 0
0.225 0.375 0
0.25 0.375 0
0.275 0.375 0
0.3 0.375 0
0.325 0.375 0
0.35 0.375 0
0.375 0.375 0
0.4 0.375 0
0.425 0.375 0
0.45 0.375 0
0.475 0.375 0
0.5 0.375 0
0.525 0.375 0
0.55 0.375 0
0.575 0.375 0
0.6 0.375 0
0.625 0.375 0
0.65 0.375 0
0.675 0.375 0
0.7 0.375 0
0.725 0.375 0
0.75 0.375 0
0.775 0.375 0
0.8 0.375 0
0.825 0.375 0
0.85 0.375 0
0.875 0.375 0
0.9 0.375 0
0.925 0.375 0
0.95 0.375 0
0.975 0.375 0
0.025 0.4 0
0.05 0.4 0
0.075 0.4 0
0.1 0.4 0
0.125 0.4 0
0.15 0.4 0
0.175 0.4 0
0.2 0.4 0
0.225 0.4 0
0.25 0.4 0
0.275 0.4 0
0.3 0.4 0
0.325 0.4 0
0.35 0.4 0
0.375 0.4 0
0.4 0.4 0
0.425 0.4 0
0.45 0.4 0
0.475 0.4 0
0.5 0.4 0
0.525 0.4 0
0.55 0.4 0
0.575 0.4 0
0.6 0.4 0
0.625 0.4 0
0.65 0.4 0
0.675 0.4 0
0.7 0.4 0
0.725 0.4 0
0.75 0.4 0
0.775 0.4 0
0.8 0.4 0
0.825 0.4 0
0.85 0.4 0
0.875 0.4 0
0.9 0.4 0
0.925 0.4 0
0.95 0.4 0
0.975 0.4 0
0.025 0.425 0
0.05 0.425 0
0.075 0.425 0
0.1 0.425 0
0.125 0.425 0
0.15 0.425 0
0.175 0.425 0
0.2 0.425 0
0.225 0.425 0
0.25 0.425 0
0.275 0.425 0
0.3 0.425 0
0.325 0.425 0
0.35 0.425 0
0.375 0.425 0
0.4 0.425 0
0.425 0.425 0
0.45 0.425 0
0.475 0.425 0
0.5 0.425 0
0.525 0.425 0
0.55 0.425 0
0.575 0.425 0
0.6 0.425 0
0.625 0.425 0
0.65 0.425 0
0.675 0.425 0
0.7 0.425 0
0.725 0.425 0
0.75 0.425 0
0.775 0.425 0
0.8 0.425 0
0.825 0.425 0
0.85 0.425 0
0.875 0.425 0
0.9 0.425 0
0.925 0.425 0
0.95 0.425 0
0.975 0.425 0
0.025 0.45 0
0.05 0.45 0
0.075 0.45 0
0.1 0.45 0
0.125 0.45 0
0.15 0.45 0
0.175 0.45 0
0.2 0.45 0
0.225 0.45 0
0.25 0.45 0
0.275 0.45 0
0.3 0.45 0
0.325 0.45 0
0.35 0.45 0
0.375 0.45 0
0.4 0.45 0
0.425 0.45 0
0.45 0.45 0
0.475 0.45 0
0.5 0.45 0
0.525 0.45 0
0.55 0.45 0
0.575 0.45 0
0.6 0.45 0
0.625 0.45 0
0.65 0.45 0
0.675 0.45 0
0.7 0.45 0
0.725 0.45 0
0.75 0.45 0
0.775 0.45 0
0.8 0.45 0
0.825 0.45 0
0.85 0.45 0
0.875 0.45 0
0.9 0.45 0
0.925 0.45 0
0.95 0.45 0
0.975 0.45 0
0.025 0.475 0
0.05 0.475 0
0.075 0.475 0
0.1 0.475 0
0.125 0.475 0
0.15 0.475 0
0.175 0.475 0
0.2 0.475 0
0.225 0.475 0
0.25 0.475 0
0.275 0.475 0
0.3 0.475 0
0.325 0.475 0
0.35 0.475 0
0.375 0.475 0
0.4 0.475 0
0.425 0.475 0
0.45 0.475 0
0.475 0.475 0
0.5 0.475 0
0.525 0.475 0
0.55 0.475 0
0.575 0.475 0
0.6 0.475 0
0.625 0.475 0
0.65 0.475 0
0.675 0.475 0
0.7 0.475 0
0.725 0.475 0
0.75 0.475 0
0.775 0.475 0
0.8 0.475 0
0.825 0.475 0
0.85 0.475 0
0.875 0.475 0
0.9 0.475 0
0.925 0.475 0
0.95 0.475 0
0.975 0.475 0
0.025 0.5 0
0.05 0.5 0
0.075 0.5 0
0.1 0.5 0
0.125 0.5 0
0.15 0.5 0
0.175 0.5 0
0.2 0.5 0
0.225 0.5 0
0.25 0.5 0
0.275 0.5 0
0.3 0.5 0
0.325 0.5 0
0.35 0.5 0
0.375 0.5 0
0.4 0.5 0
0.425 0.5 0
0.45 0.5 0
0.475 0.5 0
0.5 0.5 0
0.525 0.5 0
0.55 0.5 0
0.575 0.5 0
0.6 0.5 0
0.625 0.5 0
0.65 0.5 0
0.675 0.5 0
0.7 0.5 0
0.725 0.5 0
0.75 0.5 0
0.775 0.5 0
0.8 0.5 0
0.825 0.5 0
0.85 0.5 0
0.875 0.5 0
0.9 0.5 0
0.925 0.5 0
0.95 0.5 0
0.975 0.5 0
0.025 0.525 0
0.05 0.525 0
0.075 0.525 0
0.1 0.525 0
0.125 0.525 0
0.15 0.525 0
0.175 0.525 0
0.2 0.525 0
0.225 0.525 0
0.25 0.525 0
0.275 0.525 0
0.3 0.525 0
0.325 0.525 0
0.35 0.525 0
0.375 0.525 0
0.4 0.525 0
0.425 0.525 0
0.45 0.525 0
0.475 0.525 0
0.5 0.525 0
0.525 0.525 0
0.55 0.525 0
0.575 0.525 0
0.6 0.525 0
0.625 0.525 0
0.65 0.525 0
0.675 0.525 0
0.7 0.525 0
0.725 0.525 0
0.75 0.525 0
0.775 0.525 0
0.8 0.525 0
0.825 0.525 0
0.85 0.525 0
0.875 0.525 0
0.9 0.525 0
0.925 0.525 0
0.95 0.525 0
0.975 0.525 0
0.025 0.55 0
0.05 0.55 0
0.075 0.55 0
0.1 0.55 0
0.125 0.55 0
0.15 0.55 0
0.175 0.55 0
0.2 0.55 0
0.225 0.55 0
0.25 0.55 0
0.275 0.55 0
0.3 0.55 0
0.325 0.55 0
0.35 0.55 0
0.375 0.55 0
0.4 0.55 0
0.425 0.55 0
0.45 0.55 0
0.475 0.55 0
0.5 0.55 0
0.525 0.55 0
0.55 0.55 0
0.575 0.55 0
0.6 0.55 0
0.625 0.55 0
0.65 0.55 0
0.675 0.55 0
0.7 0.55 0
0.725 0.55 0
0.75 0.55 0
0.775 0.55 0
0.8 0.55 0
0.825 0.55 0
0.85 0.55 0
0.875 0.55 0
0.9 0.55 0
0.925 0.55 0
0.95 0.55 0
0.975 0.55 0
0.025 0.575 0
0.05 0.575 0
0.075 0.575 0
0.1 0.575 0
0.125 0.575 0
0.15 0.575 0
0.175 0.575 0
0.2 0.575 0
0.225 0.575 0
0.25 0.575 0
0.275 0.575 0
0.3 0.575 0
0.325 0.575 0
0.35 0.575 0
0.375 0.575 0
0.4 0.575 0
0.425 0.575 0
0.45 0.575 0
0.475 0.575 0
0.5 0.575 0
0.525 0.575 0
0.55 0.575 0
0.575 0.575 0
0.6 0.575 0
0.625 0.575 0
0.65 0.575 0
0.675 0.575 0
0.7 0.575 0
0.725 0.575 0
0.75 0.575 0
0.775 0.575 0
0.8 0.575 0
0.825 0.575 0
0.85 0.575 0
0.875 0.575 0
0.9 0.575 0
0.925 0.575 0
0.95 0.575 0
0.975 0.575 0
0.025 0.6 0
0.05 0.6 0
0.075 0.6 0
0.1 0.6 0
0.125 0.6 0
0.15 0.6 0
0.175 0.6 0
0.2 0.6 0
0.225 0.6 0
0.25 0.6 0
0.275 0.6 0
0.3 0.6 0
0.325 0.6 0
0.35 0.6 0
0.375 0.6 0
0.4 0.6 0
0.425 0.6 0
0.45 0.6 0
0.475 0.6 0
0.5 0.6 0
0.525 0.6 0
0.55 0.6 0
0.575 0.6 0
0.6 0.6 0
0.625 0.6 0
0.65 0.6 0
0.675 0.6 0
0.7 0.6 0
0.725 0.6 0
0.75 0.6 0
0.775 0.6 0
0.8 0.6 0
0.825 0.6 0
0.85 0.6 0
0.875 0.6 0
0.9 0.6 0
0.925 0.6 0
0.95 0.6 0
0.975 0.6 0
0.025 0.625 0
0.05 0.625 0
0.075 0.625 0
0.1 0.625 0
0.125 0.625 0
0.15 0.625 0
0.175 0.625 0
0.2 0.625 0
0.225 0.625 0
0.25 0.625 0
0.275 0.625 0
0.3 0.625 0
0.325 0.625 0
0.35 0.625 0
0.375 0.625 0
0.4 0.625 0
0.425 0.625 0
0.45 0.625 0
0.475 0.625 0
0.5 0.625 0
0.525 0.625 0
0.55 0.625 0
0.575 0.625 0
0.6 0.625 0
0.625 0.625 0
0.65 0.625 0
0.675 0.625 0
0.7 0.625 0
0.725 0.625 0
0.75 0.625 0
0.775 0.625 0
0.8 0.625 0
0.825 0.625 0
0.85 0.625 0
0.875 0.625 0
0.9 0.625 0
0.925 0.625 0
0.95 0.625 0
0.975 0.625 0
0.025 0.65 0
0.05 0.65 0
0.075 0.65 0
0.1 0.65 0
0.125 0.65 0
0.15 0.65 0
0.175 0.65 0
0.2 0.65 0
0.225 0.65 0
0.25 0.65 0
0.275 0.65 0
0.3 0.65 0
0.325 0.65 0
0.35 0.65 0
0.375 0.65 0
0.4 0.65 0
0.425 0.65 0
0.45 0.65 0
0.475 0.65 0
0.5 0.65 0
0.525 0.65 0
0.55 0.65 0
0.575 0.65 0
0.6 0.65 0
0.625 0.65 0
0.65 0.65 0
0.675 0.65 0
0.7 0.65 0
0.725 0.65 0
0.75 0.65 0
0.775 0.65 0
0.8 0.65 0
0.825 0.65 0
0.85 0.65 0
0.875 0.65 0
0.9 0.65 0
0.925 0.65 0
0.95 0.65 0
0.975 0.65 0
0.025 0.675 0
0.05 0.675 0
0.075 0.675 0
0.1 0.675 0
0.125 0.675 0
0.15 0.675 0
0.175 0.675 0
0.2 0.675 0
0.225 0.675 0
0.25 0.675 0
0.275 0.675 0
0.3 0.675 0
0.325 0.675 0
0.35 0.675 0
0.375 0.675 0
0.4 0.675 0
0.425 0.675 0
0.45 0.675 0
0.475 0.675 0
0.5 0.675 0
0.525 0.675 0
0.55 0.675 0
0.575 0.675 0
0.6 0.675 0
0.625 0.675 0
0.65 0.675 0
0.675 0.675 0
0.7 0.675 0
0.725 0.675 0
0.75 0.675 0
0.775 0.675 0
0.8 0.675 0
0.825 0.675 0
0.85 0.675 0
0.875 0.675 0
0.9 0.675 0
0.925 0.675 0
0.95 0.675 0
0.975 0.675 0
0.025 0.7 0
0.05 0.7 0
0.075 0.7 0
0.1 0.7 0
0.125 0.7 0
0.15 0.7 0
0.175 0.7 0
0.2 0.7 0
0.225 0.7 0
0.25 0.7 0
0.275 0.7 0
0.3 0.7 0
0.325 0.7 0
0.35 0.7 0
0.375 0.7 0
0.4 0.7 0
0.425 0.7 0
0.45 0.7 0
0.475 0.7 0
0.5 0.7 0
0.525 0.7 0
0.55 0.7 0
0.575 0.7 0
0.6 0.7 0
0.625 0.7 0
0.65 0.7 0
0.675 0.7 0
0.7 0.7 0
0.725 0.7 0
0.75 0.7 0
0.775 0.7 0
0.8 0.7 0
0.825 0.7 0
0.85 0.7 0
0.875 0.7 0
0.9 0.7 0
0.925 0.7 0
0.95 0.7 0
0.975 0.7 0
0.025 0.725 0
0.05 0.725 0
0.075 0.725 0
0.1 0.725 0
0.125 0.725 0
0.15 0.725 0
0.175 0.725 0
0.2 0.725 0
0.225 0.725 0
0.25 0.725 0
0.275 0.725 0
0.3 0.725 0
0.325 0.725 0
0.35 0.725 0
0.375 0.725 0
0.4 0.725 0
0.425 0.725 0
0.45 0.725 0
0.475 0.725 0
0.5 0.725 0
0.525 0.725 0
0.55 0.725 0
0.575 0.725 0
0.6 0.725 0
0.625 0.725 0
0.65 0.725 0
0.675 0.725 0
0.7 0.725 0
0.725 0.725 0
0.75 0.725 0
0.775 0.725 0
0.8 0.725 0
0.825 0.725 0
0.85 0.725 0
0.875 0.725 0
0.9 0.725 0
0.925 0.725 0
0.95 0.725 0
0.975 0.725 0
0.025 0.75 0
0.05 0.75 0
0.075 0.75 0
0.1 0.75 0
0.125 0.75 0
0.15 0.75 0
0.175 0.75 0
0.2 0.75 0
0.225 0.75 0
0.25 0.75 0
0.275 0.75 0
0.3 0.75 0
0.325 0.75 0
0.35 0.75 0
0.375 0.75 0
0.4 0.75 0
0.425 0.75 0
0.45 0.75 0
0.475 0.75 0
0.5 0.75 0
0.525 0.75 0
0.55 0.75 0
0.575 0.75 0
0.6 0.75 0
0.625 0.75 0
0.65 0.75 0
0.675 0.75 0
0.7 0.75 0
0.725 0.75 0
0.75 0.75 0
0.775 0.75 0
0.8 0.75 0
0.825 0.75 0
0.85 0.75 0
0.875 0.75 0
0.9 0.75 0
0.925 0.75 0
0.95 0.75 0
0.975 0.75 0
0.025 0.775 0
0.05 0.775 0
0.075 0.775 0
0.1 0.775 0
0.125 0.775 0
0.15 0.775 0
0.175 0.775 0
0.2 0.775 0
0.225 0.775 0
0.25 0.775 0
0.275 0.775 0
0.3 0.775 0
0.325 0.775 0
0.35 0.775 0
0.375 0.775 0
0.4 0.775 0
0.425 0.775 0
0.45 0.775 0
0.475 0.775 0
0.5 0.775 0
0.525 0.775 0
0.55 0.775 0
0.575 0.775 0
0.6 0.775 0
0.625 0.775 0
0.65 0.775 0
0.675 0.775 0
0.7 0.775 0
0.725 0.775 0
0.75 0.775 0
0.775 0.775 0
0.8 0.775 0
0.825 0.775 0
0.85 0.775 0
0.875 0.775 0
0.9 0.775 0
0.925 0.775 0
0.95 0.775 0
0.975 0.775 0
0.025 0.8 0
0.05 0.8 0
0.075 0.8 0
0.1 0.8 0
0.125 0.8 0
0.15 0.8 0
0.175 0.8 0
0.2 0.8 0
0.225 0.8 0
0.25 0.8 0
0.275 0.8 0
0.3 0.8 0
0.325 0.8 0
0.35 0.8 0
0.375 0.8 0
0.4 0.8 0
0.425 0.8 0
0.45 0.8 0
0.475 0.8 0
0.5 0.8 0
0.525 0.8 0
0.55 0.8 0
0.575 0.8 0
0.6 0.8 0
0.625 0.8 0
0.65 0.8 0
0.675 0.8 0
0.7 0.8 0
0.725 0.8 0
0.75 0.8 0
0.775 0.8 0
0.8 0.8 0
0.825 0.8 0
0.85 0.8 0
0.875 0.8 0
0.9 0.8 0
0.925 0.8 0
0.95 0.8 0
0.975 0.8 0
0.025 0.825 0
0.05 0.825 0
0.075 0.825 0
0.1 0.825 0
0.125 0.825 0
0.15 0.825 0
0.175 0.825 0
0.2 0.825 0
0.225 0.825 0
0.25 0.825 0
0.275 0.825 0
0.3 0.825 0
0.325 0.825 0
0.35 0.825 0
0.375 0.825 0
0.4 0.825 0
0.425 0.825 0
0.45 0.825 0
0.475 0.825 0
0.5 0.825 0
0.525 0.825 0
0.55 0.825 0
0.575 0.825 0
0.6 0.825 0
0.625 0.825 0
0.65 0.825 0
0.675 0.825 0
0.7 0.825 0
0.725 0.825 0
0.75 0.825 0
0.775 0.825 0
0.8 0.825 0
0.825 0.825 0
0.85 0.825 0
0.875 0.825 0
0.9 0.825 0
0.925 0.825 0
0.95 0.825 0
0.975 0.825 0
0.025 0.85 0
0.05 0.85 0
0.075 0.85 0
0.1 0.85 0
0.125 0.85 0
0.15 0.85 0
0.175 0.85 0
0.2 0.85 0
0.225 0.85 0
0.25 0.85 0
0.275 0.85 0
0.3 0.85 0
0.325 0.85 0
0.35 0.85 0
0.375 0.85 0
0.4 0.85 0
0.425 0.85 0
0.45 0.85 0
0.475 0.85 0
0.5 0.85 0
0.525 0.85 0
0.55 0.85 0
0.575 0.85 0
0.6 0.85 0
0.625 0.85 0
0.65 0.85 0
0.675 0.85 0
0.7 0.85 0
0.725 0.85 0
0.75 0.85 0
0.775 0.85 0
0.8 0.85 0
0.825 0.85 0
0.85 0.85 0
0.875 0.85 0
0.9 0.85 0
0.925 0.85 0
0.95 0.85 0
0.975 0.85 0
0.025 0.875 0
0.05 0.875 0
0.075 0.875 0
0.1 0.875 0
0.125 0.875 0
0.15 0.875 0
0.175 0.875 0
0.2 0.875 0
0.225 0.875 0
0.25 0.875 0
0.275 0.875 0
0.3 0.875 0
0.325 0.875 0
0.35 0.875 0
0.375 0.875 0
0.4 0.875 0
0.425 0.875 0
0.45 0.875 0
0.475 0.875 0
0.5 0.875 0
0.525 0.875 0
0.55 0.875 0
0.575 0.875 0
0.6 0.875 0
0.625 0.875 0
0.65 0.875 0
0.675 0.875 0
0.7 0.875 0
0.725 0.875 0
0.75 0.875 0
0.775 0.875 0
0.8 0.875 0
0.825 0.875 0
0.85 0.875 0
0.875 0.875 0
0.9 0.875 0
0.925 0.875 0
0.95 0.875 0
0.975 0.875 0
0.025 0.9 0
0.05 0.9 0
0.075 0.9 0
0.1 0.9 0
0.125 0.9 0
0.15 0.9 0
0.175 0.9 0
0.2 0.9 0
0.225 0.9 0
0.25 0.9 0
0.275 0.9 0
0.3 0.9 0
0.325 0.9 0
0.35 0.9 0
0.375 0.9 0
0.4 0.9 0
0.425 0.9 0
0.45 0.9 0
0.475 0.9 0
0.5 0.9 0
0.525 0.9 0
0.55 0.9 0
0.575 0.9 0
0.6 0.9 0
0.625 0.9 0
0.65 0.9 0
0.675 0.9 0
0.7 0.9 0
0.725 0.9 0
0.75 0.9 0
0.775 0.9 0
0.8 0.9 0
0.825 0.9 0
0.85 0.9 0
0.875 0.9 0
0.9 0.9 0
0.925 0.9 0
0.95 0.9 0
0.975 0.9 0
0.025 0.925 0
0.05 0.925 0
0.075 0.925 0
0.1 0.925 0
0.125 0.925 0
0.15 0.925 0
0.175 0.925 0
0.2 0.925 0
0.225 0.925 0
0.25 0.925 0
0.275 0.925 0
0.3 0.925 0
0.325 0.925 0
0.35 0.925 0
0.375 0.925 0
0.4 0.925 0
0.425 0.925 0
0.45 0.925 0
0.475 0.925 0
0.5 0.925 0
0.525 0.925 0
0.55 0.925 0
0.575 0.925 0
0.6 0.925 0
0.625 0.925 0
0.65 0.925 0
0.675 0.925 0
0.7 0.925 0
0.725 0.925 0
0.75 0.925 0
0.775 0.925 0
0.8 0.925 0
0.825 0.925 0
0.85 0.925 0
0.875 0.925 0
0.9 0.925 0
0.925 0.925 0
0.95 0.925 0
0.975 0.925 0
0.025 0.95 0
0.05 0.95 0
0.075 0.95 0
0.1 0.95 0
0.125 0.95 0
0.15 0.95 0
0.175 0.95 0
0.2 0.95 0
0.225 0.95 0
0.25 0.95 0
0.275 0.95 0
0.3 0.95 0
0.325 0.95 0
0.35 0.95 0
0.375 0.95 0
0.4 0.95 0
0.425 0.95 0
0.45 0.95 0
0.475 0.95 0
0.5 0.95 0
0.525 0.95 0
0.55 0.95 0
0.575 0.95 0
0.6 0.95 0
0.625 0.95 0
0.65 0.95 0
0.675 0.95 0
0.7 0.95 0
0.725 0.95 0
0.75 0.95 0
0.775 0.95 0
0.8 0.95 0
0.825 0.95 0
0.85 0.95 0
0.875 0.95 0
0.9 0.95 0
0.925 0.95 0
0.95 0.95 0
0.975 0.95 0
0.025 0.975 0
0.05 0.975 0
0.075 0.975 0
0.1 0.975 0
0.125 0.975 0
0.15 0.975 0
0.175 0.975 0
0.2 0.975 0
0.225 0.975 0
0.25 0.975 0
0.275 0.975 0
0.3 0.975 0
0.325 0.975 0
0.35 0.975 0
0.375 0.975 0
0.4 0.975 0
0.425 0.975 0
0.45 0.975 0
0.475 0.975 0
0.5 0.975 0
0.525 0.975 0
0.55 0.975 0
0.575 0.975 0
0.6 0.975 0
0.625 0.975 0
0.65 0.975 0
0.675 0.975 0
0.7 0.975 0
0.725 0.975 0
0.75 0.975 0
0.775 0.975 0
0.8 0.975 0
0.825 0.975 0
0.85 0.975 0
0.875 0.975 0
0.9 0.975 0
0.925 0.975 0
0.95 0.975 0
0.975 0.975 0
$EndNodes
$Elements
6 1760 1 1760
1 1 1 40
1 1 6
2 6 7
3 7 8
4 8 9
5 9 10
6 10 11
7 11 12
8 12 13
9 13 14
10 14 15
11 15 16
12 16 17
13 17 18
14 18 19
15 19 20
16 20 21
17 21 22
18 22 23
19 23 24
20 24 25
21 25 26
22 26 27
23 27 28
24 28 29
25 29 30
26 30 31
27 31 32
28 32 33
29 33 34
30 34 35
31 35 36
32 36 37
33 37 38
34 38 39
35 39 40
36 40 41
37 41 42
38 42 43
39 43 44
40 44 2
1 2 1 40
41 2 45
42 45 46
43 46 47
44 47 48
45 48 49
46 49 50
47 50 51
48 51 52
49 52 53
50 53 54
51 54 55
52 55 56
53 56 57
54 57 58
55 58 59
56 59 60
57 60 61
58 61 62
59 62 63
60 63 64
61 64 65
62 65 66
63 66 67
64 67 68
65 68 69
66 69 70
67 70 71
68 71 72
69 72 73
70 73 74
71 74 75
72 75 76
73 76 77
74 77 78
75 78 79
76 79 80
77 80 81
78 81 82
79 82 83
80 83 3
1 3 1 40
81 3 84
82 84 85
83 85 86
84 86 87
85 87 88
86 88 89
87 89 90
88 90 91
89 91 92
90 92 93
91 93 94
92 94 95
93 95 96
94 96 97
95 97 98
96 98 99
97 99 100
98 100 101
99 101 102
100 102 103
101 103 104
102 104 105
103 105 106
104 106 107
105 107 108
106 108 109
107 109 110
108 110 111
109 111 112
110 112 113
111 113 114
112 114 115
113 115 116
114 116 117
115 117 118
116 118 119
117 119 120
118 120 121
119 121 122
120 122 4
1 4 1 24
121 4 123
122 123 124
123 124 125
124 125 126
125 126 127
126 127 128
127 128 129
128 129 130
129 130 131
130 131 132
131 132 133
132 133 134
133 134 135
134 135 136
135 136 137
136 137 138
137 138 139
138 139 140
139 140 141
140 141 142
141 142 143
142 143 144
143 144 145
144 145 5
1 5 1 16
145 5 146
146 146 147
147 147 148
148 148 149
149 149 150
150 150 151
151 151 152
152 152 153
153 153 154
154 154 155
155 155 156
156 156 157
157 157 158
158 158 159
159 159 160
160 160 1
2 1 3 1600
161 1 6 161 160
162 6 7 162 161
163 7 8 163 162
164 8 9 164 163
165 9 10 165 164
166 10 11 166 165
167 11 12 167 166
168 12 13 168 167
169 13 14 169 168
170 14 15 170 169
171 15 16 171 170
172 16 17 172 171
173 17 18 173 172
174 18 19 174 173
175 19 20 175 174
176 20 21 176 175
177 21 22 177 176
178 22 23 178 177
179 23 24 179 178
180 24 25 180 179
181 25 26 181 180
182 26 27 182 181
183 27 28 183 182
184 28 29 184 183
185 29 30 185 184
186 30 31 186 185
187 31 32 187 186
188 32 33 188 187
189 33 34 189 188
190 34 35 190 189
191 35 36 191 190
192 36 37 192 191
193 37 38 193 192
194 38 39 194 193
195 39 40 195 194
196 40 41 196 195
197 41 42 197 196
198 42 43 198 197
199 43 44 199 198
200 44 2 45 199
201 160 161 200 159
202 161 162 201 200
203 162 163 202 201
204 163 164 203 202
205 164 165 204 203
206 165 166 205 204
207 166 167 206 205
208 167 168 207 206
209 168 169 208 207
210 169 170 209 208
211 170 171 210 209
212 171 172 211 210
213 172 173 212 211
214 173 174 213 212
215 174 175 214 213
216 175 176 215 214
217 176 177 216 215
218 177 178 217 216
219 178 179 218 217
220 179 180 219 218
221 180 181 220 219
222 181 182 221 220
223 182 183 222 221
224 183 184 223 222
225 184 185 224 223
226 185 186 225 224
227 186 187 226 225
228 187 188 227 226
229 188 189 228 227
230 189 190 229 228
231 190 191 230 229
232 191 192 231 230
233 192 193 232 231
234 193 194 233 232
235 194 195 234 233
236 195 196 235 234
237 196 197 236 235
238 197 198 237 236
239 198 199 238 237
240 199 45 46 238
241 159 200 239 158
242 200 201 240 239
243 201 202 241 240
244 202 203 242 241
245 203 204 243 242
246 204 205 244 243
247 205 206 245 244
248 206 207 246 245
249 207 208 247 246
250 208 209 248 247
251 209 210 249 248
252 210 211 250 249
253 211 212 251 250
254 212 213 252 251
255 213 214 253 252
256 214 215 254 253
257 215 216 255 254
258 216 217 256 255
259 217 218 257 256
260 218 219 258 257
261 219 220 259 258
262 220 221 260 259
263 221 222 261 260
264 222 223 262 261
265 223 224 263 262
266 224 225 264 263
267 225 226 265 264
268 226 227 266 265
269 227 228 267 266
270 228 229 268 267
271 229 230 269 268
272 230 231 270 269
273 231 232 271 270
274 232 233 272 271
275 233 234 273 272
276 234 235 274 273
277 235 236 275 274
278 236 237 276 275
279 237 238 277 276
280 238 46 47 277
281 158 239 278 157
282 239 240 279 278
283 240 241 280 279
284 241 242 281 280
285 242 243 282 281
286 243 244 283 282
287 244 245 284 283
288 245 246 285 284
289 246 247 286 285
290 247 248 287 286
291 248 249 288 287
292 249 250 289 288
293 250 251 290 289
294 251 252 291 290
295 252 253 292 291
296 253 254 293 292
297 254 255 294 293
298 255 256 295 294
299 256 257 296 295
300 257 258 297 296
301 258 259 298 297
302 259 260 299 298
303 260 261 300 299
304 261 262 301 300
305 262 263 302 301
306 263 264 303 302
307 264 265 304 303
308 265 266 305 304
309 266 267 306 305
310 267 268 307 306
311 268 269 308 307
312 269 270 309 308
313 270 271 310 309
314 271 272 311 310
315 272 273 312 311
316 273 274 313 312
317 274 275 314 313
318 275 276 315 314
319 276 277 316 315
320 277 47 48 316
321 157 278 317 156
322 278 279 318 317
323 279 280 319 318
324 280 281 320 319
325 281 282 321 320
326 282 283 322 321
327 283 284 323 322
328 284 285 324 323
329 285 286 325 324
330 286 287 326 325
331 287 288 327 326
332 288 289 328 327
333 289 290 329 328
334 290 291 330 329
335 291 292 331 330
336 292 293 332 331
337 293 294 333 332
338 294 295 334 333
339 295 296 335 334
340 296 297 336 335
341 297 298 337 336
342 298 299 338 337
343 299 300 339 338
344 300 301 340 339
345 301 302 341 340
346 302 303 342 341
347 303 304 343 342
348 304 305 344 343
349 305 306 345 344
350 306 307 346 345
351 307 308 347 346
352 308 309 348 347
353 309 310 349 348
354 310 311 350 349
355 311 312 351 350
356 312 313 352 351
357 313 314 353 352
358 314 315 354 353
359 315 316 355 354
360 316 48 49 355
361 156 317 356 155
362 317 318 357 356
363 318 319 358 357
364 319 320 359 358
365 320 321 360 359
366 321 322 361 360
367 322 323 362 361
368 323 324 363 362
369 324 325 364 363
370 325 326 365 364
371 326 327 366 365
372 327 328 367 366
373 328 329 368 367
374 329 330 369 368
375 330 331 370 369
376 331 332 371 370
377 332 333 372 371
378 333 334 373 372
379 334 335 374 373
380 335 336 375 374
381 336 337 376 375
382 337 338 377 376
383 338 339 378 377
384 339 340 379 378
385 340 341 380 379
386 341 342 381 380
387 342 343 382 381
388 343 344 383 382
389 344 345 384 383
390 345 346 385 384
391 346 347 386 385
392 347 348 387 386
393 348 349 388 387
394 349 350 389 388
395 350 351 390 389
396 351 352 391 390
397 352 353 392 391
398 353 354 393 392
399 354 355 394 393
400 355 49 50 394
401 155 356 395 154
402 356 357 396 395
403 357 358 397 396
404 358 359 398 397
405 359 360 399 398
406 360 361 400 399
407 361 362 401 400
408 362 363 402 401
409 363 364 403 402
410 364 365 404 403
411 365 366 405 404
412 366 367 406 405
413 367 368 407 406
414 368 369 408 407
415 369 370 409 408
416 370 371 410 409
417 371 372 411 410
418 372 373 412 411
419 373 374 413 412
420 374 375 414 413
421 375 376 415 414
422 376 377 416 415
423 377 378 417 416
424 378 379 418 417
425 379 380 419 418
426 380 381 420 419
427 381 382 421 420
428 382 383 422 421
429 383 384 423 422
430 384 385 424 423
431 385 386 425 424
432 386 387 426 425
433 387 388 427 426
434 388 389 428 427
435 389 390 429 428
436 390 391 430 429
437 391 392 431 430
438 392 393 432 431
439 393 394 433 432
440 394 50 51 433
441 154 395 434 153
442 395 396 435 434
443 396 397 436 435
444 397 398 437 436
445 398 399 438 437
446 399 400 439 438
447 400 401 440 439
448 401 402 441 440
449 402 403 442 441
450 403 404 443 442
451 404 405 444 443
452 405 406 445 444
453 406 407 446 445
454 407 408 447 446
455 408 409 448 447
456 409 410 449 448
457 410 411 450 449
458 411 412 451 450
459 412 413 452 451
460 413 414 453 452
461 414 415 454 453
462 415 416 455 454
463 416 417 456 455
464 417 418 457 456
465 418 419 458 457
466 419 420 459 458
467 420 421 460 459
468 421 422 461 460
469 422 423 462 461
470 423 424 463 462
471 424 425 464 463
472 425 426 465 464
473 426 427 466 465
474 427 428 467 466
475 428 429 468 467
476 429 430 469 468
477 430 431 470 469
478 431 432 471 470
479 432 433 472 471
480 433 51 52 472
481 153 434 473 152
482 434 435 474 473
483 435 436 475 474
484 436 437 476 475
485 437 438 477 476
486 438 439 478 477
487 439 440 479 478
488 440 441 480 479
489 441 442 481 480
490 442 443 482 481
491 443 444 483 482
492 444 445 484 483
493 445 446 485 484
494 446 447 486 485
495 447 448 487 486
496 448 449 488 487
497 449 450 489 488
498 450 451 490 489
499 451 452 491 490
500 452 453 492 491
501 453 454 493 492
502 454 455 494 493
503 455 456 495 494
504 456 457 496 495
505 457 458 497 496
506 458 459 498 497
507 459 460 499 498
508 460 461 500 499
509 461 462 501 500
510 462 463 502 501
511 463 464 503 502
512 464 465 504 503
513 465 466 505 504
514 466 467 506 505
515 467 468 507 506
516 468 469 508 507
517 469 470 509 508
518 470 471 510 509
519 471 472 511 510
520 472 52 53 511
521 152 473 512 151
522 473 474 513 512
523 474 475 514 513
524 475 476 515 514
525 476 477 516 515
526 477 478 517 516
527 478 479 518 517
528 479 480 519 518
529 480 481 520 519
530 481 482 521 520
531 482 483 522 521
532 483 484 523 522
533 484 485 524 523
534 485 486 525 524
535 486 487 526 525
536 487 488 527 526
537 488 489 528 527
538 489 490 529 528
539 490 491 530 529
540 491 492 531 530
541 492 493 532 531
542 493 494 533 532
543 494 495 534 533
544 495 496 535 534
545 496 497 536 535
546 497 498 537 536
547 498 499 538 537
548 499 500 539 538
549 500 501 540 539
550 501 502 541 540
551 502 503 542 541
552 503 504 543 542
553 504 505 544 543
554 505 506 545 544
555 506 507 546 545
556 507 508 547 546
557 508 509 548 547
558 509 510 549 548
559 510 511 550 549
560 511 53 54 550
561 151 512 551 150
562 512 513 552 551
563 513 514 553 552
564 514 515 554 553
565 515 516 555 554
566 516 517 556 555
567 517 518 557 556
568 518 519 558 557
569 519 520 559 558
570 520 521 560 559
571 521 522 561 560
572 522 523 562 561
573 523 524 563 562
574 524 525 564 563
575 525 526 565 564
576 526 527 566 565
577 527 528 567 566
578 528 529 568 567
579 529 530 569 568
580 530 531 570 569
581 531 532 571 570
582 532 533 572 571
583 533 534 573 572
584 534 535 574 573
585 535 536 575 574
586 536 537 576 575
587 537 538 577 576
588 538 539 578 577
589 539 540 579 578
590 540 541 580 579
591 541 542 581 580
592 542 543 582 581
593 543 544 583 582
594 544 545 584 583
595 545 546 585 584
596 546 547 586 585
597 547 548 587 586
598 548 549 588 587
599 549 550 589 588
600 550 54 55 589
601 150 551 590 149
602 551 552 591 590
603 552 553 592 591
604 553 554 593 592
605 554 555 594 593
606 555 556 595 594
607 556 557 596 595
608 557 558 597 596
609 558 559 598 597
610 559 560 599 598
611 560 561 600 599
612 561 562 601 600
613 562 563 602 601
614 563 564 603 602
615 564 565 604 603
616 565 566 605 604
617 566 567 606 605
618 567 568 607 606
619 568 569 608 607
620 569 570 609 608
621 570 571 610 609
622 571 572 611 610
623 572 573 612 611
624 573 574 613 612
625 574 575 614 613
626 575 576 615 614
627 576 577 616 615
628 577 578 617 616
629 578 579 618 617
630 579 580 619 618
631 580 581 620 619
632 581 582 621 620
633 582 583 622 621
634 583 584 623 622
635 584 585 624 623
636 585 586 625 624
637 586 587 626 625
638 587 588 627 626
639 588 589 628 627
640 589 55 56 628
641 149 590 629 148
642 590 591 630 629
643 591 592 631 630
644 592 593 632 631
645 593 594 633 632
646 594 595 634 633
647 595 596 635 634
648 596 597 636 635
649 597 598 637 636
650 598 599 638 637
651 599 600 639 638
652 600 601 640 639
653 601 602 641 640
654 602 603 642 641
655 603 604 643 642
656 604 605 644 643
657 605 606 645 644
658 606 607 646 645
659 607 608 647 646
660 608 609 648 647
661 609 610 649 648
662 610 611 650 649
663 611 612 651 650
664 612 613 652 651
665 613 614 653 652
666 614 615 654 653
667 615 616 655 654
668 616 617 656 655
669 617 618 657 656
670 618 619 658 657
671 619 620 659 658
672 620 621 660 659
673 621 622 661 660
674 622 623 662 661
675 623 624 663 662
676 624 625 664 663
677 625 626 665 664
678 626 627 666 665
679 627 628 667 666
680 628 56 57 667
681 148 629 668 147
682 629 630 669 668
683 630 631 670 669
684 631 632 671 670
685 632 633 672 671
686 633 634 673 672
687 634 635 674 673
688 635 636 675 674
689 636 637 676 675
690 637 638 677 676
691 638 639 678 677
692 639 640 679 678
693 640 641 680 679
694 641 642 681 680
695 642 643 682 681
696 643 644 683 682
697 644 645 684 683
698 645 646 685 684
699 646 647 686 685
700 647 648 687 686
701 648 649 688 687
702 649 650 689 688
703 650 651 690 689
704 651 652 691 690
705 652 653 692 691
706 653 654 693 692
707 654 655 694 693
708 655 656 695 694
709 656 657 696 695
710 657 658 697 696
711 658 659 698 697
712 659 660 699 698
713 660 661 700 699
714 661 662 701 700
715 662 663 702 701
716 663 664 703 702
717 664 665 704 703
718 665 666 705 704
719 666 667 706 705
720 667 57 58 706
721 147 668 707 146
722 668 669 708 707
723 669 670 709 708
724 670 671 710 709
725 671 672 711 710
726 672 673 712 711
727 673 674 713 712
728 674 675 714 713
729 675 676 715 714
730 676 677 716 715
731 677 678 717 716
732 678 679 718 717
733 679 680 719 718
734 680 681 720 719
735 681 682 721 720
736 682 683 722 721
737 683 684 723 722
738 684 685 724 723
739 685 686 725 724
740 686 687 726 725
741 687 688 727 726
742 688 689 728 727
743 689 690 729 728
744 690 691 730 729
745 691 692 731 730
746 692 693 732 731
747 693 694 733 732
748 694 695 734 733
749 695 696 735 734
750 696 697 736 735
751 697 698 737 736
752 698 699 738 737
753 699 700 739 738
754 700 701 740 739
755 701 702 741 740
756 702 703 742 741
757 703 704 743 742
758 704 705 744 743
759 705 706 745 744
760 706 58 59 745
761 146 707 746 5
762 707 708 747 746
763 708 709 748 747
764 709 710 749 748
765 710 711 750 749
766 711 712 751 750
767 712 713 752 751
768 713 714 753 752
769 714 715 754 753
770 715 716 755 754
771 716 717 756 755
772 717 718 757 756
773 718 719 758 757
774 719 720 759 758
775 720 721 760 759
776 721 722 761 760
777 722 723 762 761
778 723 724 763 762
779 724 725 764 763
780 725 726 765 764
781 726 727 766 765
782 727 728 767 766
783 728 729 768 767
784 729 730 769 768
785 730 731 770 769
786 731 732 771 770
787 732 733 772 771
788 733 734 773 772
789 734 735 774 773
790 735 736 775 774
791 736 737 776 775
792 737 738 777 776
793 738 739 778 777
794 739 740 779 778
795 740 741 780 779
796 741 742 781 780
797 742 743 782 781
798 743 744 783 782
799 744 745 784 783
800 745 59 60 784
801 5 746 785 145
802 746 747 786 785
803 747 748 787 786
804 748 749 788 787
805 749 750 789 788
806 750 751 790 789
807 751 752 791 790
808 752 753 792 791
809 753 754 793 792
810 754 755 794 793
811 755 756 795 794
812 756 757 796 795
813 757 758 797 796
814 758 759 798 797
815 759 760 799 798
816 760 761 800 799
817 761 762 801 800
818 762 763 802 801
819 763 764 803 802
820 764 765 804 803
821 765 766 805 804
822 766 767 806 805
823 767 768 807 806
824 768 769 808 807
825 769 770 809 808
826 770 771 810 809
827 771 772 811 810
828 772 773 812 811
829 773 774 813 812
830 774 775 814 813
831 775 776 815 814
832 776 777 816 815
833 777 778 817 816
834 778 779 818 817
835 779 780 819 818
836 780 781 820 819
837 781 782 821 820
838 782 783 822 821
839 783 784 823 822
840 784 60 61 823
841 145 785 824 144
842 785 786 825 824
843 786 787 826 825
844 787 788 827 826
845 788 789 828 827
846 789 790 829 828
847 790 791 830 829
848 791 792 831 830
849 792 793 832 831
850 793 794 833 832
851 794 795 834 833
852 795 796 835 834
853 796 797 836 835
854 797 798 837 836
855 798 799 838 837
856 799 800 839 838
857 800 801 840 839
858 801 802 841 840
859 802 803 842 841
860 803 804 843 842
861 804 805 844 843
862 805 806 845 844
863 806 807 846 845
864 807 808 847 846
865 808 809 848 847
866 809 810 849 848
867 810 811 850 849
868 811 812 851 850
869 812 813 852 851
870 813 814 853 852
871 814 815 854 853
872 815 816 855 854
873 816 817 856 855
874 817 818 857 856
875 818 819 858 857
876 819 820 859 858
877 820 821 860 859
878 821 822 861 860
879 822 823 862 861
880 823 61 62 862
881 144 824 863 143
882 824 825 864 863
883 825 826 865 864
884 826 827 866 865
885 827 828 867 866
886 828 829 868 867
887 829 830 869 868
888 830 831 870 869
889 831 832 871 870
890 832 833 872 871
891 833 834 873 872
892 834 835 874 873
893 835 836 875 874
894 836 837 876 875
895 837 838 877 876
896 838 839 878 877
897 839 840 879 878
898 840 841 880 879
899 841 842 881 880
900 842 843 882 881
901 843 844 883 882
902 844 845 884 883
903 845 846 885 884
904 846 847 886 885
905 847 848 887 886
906 848 849 888 887
907 849 850 889 888
908 850 851 890 889
909 851 852 891 890
910 852 853 892 891
911 853 854 893 892
912 854 855 894 893
913 855 856 895 894
914 856 857 896 895
915 857 858 897 896
916 858 859 898 897
917 859 860 899 898
918 860 861 900 899
919 861 862 901 900
920 862 62 63 901
921 143 863 902 142
922 863 864 903 902
923 864 865 904 903
924 865 866 905 904
925 866 867 906 905
926 867 868 907 906
927 868 869 908 907
928 869 870 909 908
929 870 871 910 909
930 871 872 911 910
931 872 873 912 911
932 873 874 913 912
933 874 875 914 913
934 875 876 915 914
935 876 877 916 915
936 877 878 917 916
937 878 879 918 917
938 879 880 919 918
939 880 881 920 919
940 881 882 921 920
941 882 883 922 921
942 883 884 923 922
943 884 885 924 923
944 885 886 925 924
945 886 887 926 925
946 887 888 927 926
947 888 889 928 927
948 889 890 929 928
949 890 891 930 929
950 891 892 931 930
951 892 893 932 931
952 893 894 933 932
953 894 895 934 933
954 895 896 935 934
955 896 897 936 935
956 897 898 937 936
957 898 899 938 937
958 899 900 939 938
959 900 901 940 939
960 901 63 64 940
961 142 902 941 141
962 902 903 942 941
963 903 904 943 942
964 904 905 944 943
965 905 906 945 944
966 906 907 946 945
967 907 908 947 946
968 908 909 948 947
969 909 910 949 948
970 910 911 950 949
971 911 912 951 950
972 912 913 952 951
973 913 914 953 952
974 914 915 954 953
975 915 916 955 954
976 916 917 956 955
977 917 918 957 956
978 918 919 958 957
979 919 920 959 958
980 920 921 960 959
981 921 922 961 960
982 922 923 962 961
983 923 924 963 962
984 924 925 964 963
985 925 926 965 964
986 926 927 966 965
987 927 928 967 966
988 928 929 968 967
989 929 930 969 968
990 930 931 970 969
991 931 932 971 970
992 932 933 972 971
993 933 934 973 972
994 934 935 974 973
995 935 936 975 974
996 936 937 976 975
997 937 938 977 976
998 938 939 978 977
999 939 940 979 978
1000 940 64 65 979
1001 141 941 980 140
1002 941 942 981 980
1003 942 943 982 981
1004 943 944 983 982
1005 944 945 984 983
1006 945 946 985 984
1007 946 947 986 985
1008 947 948 987 986
1009 948 949 988 987
1010 949 950 989 988
1011 950 951 990 989
1012 951 952 991 990
1013 952 953 992 991
1014 953 954 993 992
1015 954 955 994 993
1016 955 956 995 994
1017 956 957 996 995
1018 957 958 997 996
1019 958 959 998 997
1020 959 960 999 998
1021 960 961 1000 999
1022 961 962 1001 1000
1023 962 963 1002 1001
1024 963 964 1003 1002
1025 964 965 1004 1003
1026 965 966 1005 1004
1027 966 967 1006 1005
1028 967 968 1007 1006
1029 968 969 1008 1007
1030 969 970 1009 1008
1031 970 971 1010 1009
1032 971 972 1011 1010
1033 972 973 1012 1011
1034 973 974 1013 1012
1035 974 975 1014 1013
1036 975 976 1015 1014
1037 976 977 1016 1015
1038 977 978 1017 1016
1039 978 979 1018 1017
1040 979 65 66 1018
1041 140 980 1019 139
1042 980 981 1020 1019
1043 981 982 1021 1020
1044 982 983 1022 1021
1045 983 984 1023 1022
1046 984 985 1024 1023
1047 985 986 1025 1024
1048 986 987 1026 1025
1049 987 988 1027 1026
1050 988 989 1028 1027
1051 989 990 1029 1028
1052 990 991 1030 1029
1053 991 992 1031 1030
1054 992 993 1032 1031
1055 993 994 1033 1032
1056 994 995 1034 1033
1057 995 996 1035 1034
1058 996 997 1036 1035
1059 997 998 1037 1036
1060 998 999 1038 1037
1061 999 1000 1039 1038
1062 1000 1001 1040 1039
1063 1001 1002 1041 1040
1064 1002 1003 1042 1041
1065 1003 1004 1043 1042
1066 1004 1005 1044 1043
1067 1005 1006 1045 1044
1068 1006 1007 1046 1045
1069 1007 1008 1047 1046
1070 1008 1009 1048 1047
1071 1009 1010 1049 1048
1072 1010 1011 1050 1049
1073 1011 1012 1051 1050
1074 1012 1013 1052 1051
1075 1013 1014 1053 1052
1076 1014 1015 1054 1053
1077 1015 1016 1055 1054
1078 1016 1017 1056 1055
1079 1017 1018 1057 1056
1080 1018 66 67 1057
1081 139 1019 1058 138
1082 1019 1020 1059 1058
1083 1020 1021 1060 1059
1084 1021 1022 1061 1060
1085 1022 1023 1062 1061
1086 1023 1024 1063 1062
1087 1024 1025 1064 1063
1088 1025 1026 1065 1064
1089 1026 1027 1066 1065
1090 1027 1028 1067 1066
1091 1028 1029 1068 1067
1092 1029 1030 1069 1068
1093 1030 1031 1070 1069
1094 1031 1032 1071 1070
1095 1032 1033 1072 1071
1096 1033 1034 1073 1072
1097 1034 1035 1074 1073
1098 1035 1036 1075 1074
1099 1036 1037 1076 1075
1100 1037 1038 1077 1076
1101 1038 1039 1078 1077
1102 1039 1040 1079 1078
1103 1040 1041 1080 1079
1104 1041 1042 1081 1080
1105 1042 1043 1082 1081
1106 1043 1044 1083 1082
1107 1044 1045 1084 1083
1108 1045 1046 1085 1084
1109 1046 1047 1086 1085
1110 1047 1048 1087 1086
1111 1048 1049 1088 1087
1112 1049 1050 1089 1088
1113 1050 1051 1090 1089
1114 1051 1052 1091 1090
1115 1052 1053 1092 1091
1116 1053 1054 1093 1092
1117 1054 1055 1094 1093
1118 1055 1056 1095 1094
1119 1056 1057 1096 1095
1120 1057 67 68 1096
1121 138 1058 1097 137
1122 1058 1059 1098 1097
1123 1059 1060 1099 1098
1124 1060 1061 1100 1099
1125 1061 1062 1101 1100
1126 1062 1063 1102 1101
1127 1063 1064 1103 1102
1128 1064 1065 1104 1103
1129 1065 1066 1105 1104
1130 1066 1067 1106 1105
1131 1067 1068 1107 1106
1132 1068 1069 1108 1107
1133 1069 1070 1109 1108
1134 1070 1071 1110 1109
1135 1071 1072 1111 1110
1136 1072 1073 1112 1111
1137 1073 1074 1113 1112
1138 1074 1075 1114 1113
1139 1075 1076 1115 1114
1140 1076 1077 1116 1115
1141 1077 1078 1117 1116
1142 1078 1079 1118 1117
1143 1079 1080 1119 1118
1144 1080 1081 1120 1119
1145 1081 1082 1121 1120
1146 1082 1083 1122 1121
1147 1083 1084 1123 1122
1148 1084 1085 1124 1123
1149 1085 1086 1125 1124
1150 1086 1087 1126 1125
1151 1087 1088 1127 1126
1152 1088 1089 1128 1127
1153 1089 1090 1129 1128
1154 1090 1091 1130 1129
1155 1091 1092 1131 1130
1156 1092 1093 1132 1131
1157 1093 1094 1133 1132
1158 1094 1095 1134 1133
1159 1095 1096 1135 1134
1160 1096 68 69 1135
1161 137 1097 1136 136
1162 1097 1098 1137 1136
1163 1098 1099 1138 1137
1164 1099 1100 1139 1138
1165 1100 1101 1140 1139
1166 1101 1102 1141 1140
1167 1102 1103 1142 1141
1168 1103 1104 1143 1142
1169 1104 1105 1144 1143
1170 1105 1106 1145 1144
1171 1106 1107 1146 1145
1172 1107 1108 1147 1146
1173 1108 1109 1148 1147
1174 1109 1110 1149 1148
1175 1110 1111 1150 1149
1176 1111 1112 1151 1150
1177 1112 1113 1152 1151
1178 1113 1114 1153 1152
1179 1114 1115 1154 1153
1180 1115 1116 1155 1154
1181 1116 1117 1156 1155
1182 1117 1118 1157 1156
1183 1118 1119 1158 1157
1184 1119 1120 1159 1158
1185 1120 1121 1160 1159
1186 1121 1122 1161 1160
1187 1122 1123 1162 1161
1188 1123 1124 1163 1162
1189 1124 1125 1164 1163
1190 1125 1126 1165 1164
1191 1126 1127 1166 1165
1192 1127 1128 1167 1166
1193 1128 1129 1168 1167
1194 1129 1130 1169 1168
1195 1130 1131 1170 1169
1196 1131 1132 1171 1170
1197 1132 1133 1172 1171
1198 1133 1134 1173 1172
1199 1134 1135 1174 1173
1200 1135 69 70 1174
1201 136 1136 1175 135
1202 1136 1137 1176 1175
1203 1137 1138 1177 1176
1204 1138 1139 1178 1177
1205 1139 1140 1179 1178
1206 1140 1141 1180 1179
1207 1141 1142 1181 1180
1208 1142 1143 1182 1181
1209 1143 1144 1183 1182
1210 1144 1145 1184 1183
1211 1145 1146 1185 1184
1212 1146 1147 1186 1185
1213 1147 1148 1187 1186
1214 1148 1149 1188 1187
1215 1149 1150 1189 1188
1216 1150 1151 1190 1189
1217 1151 1152 1191 1190
1218 1152 1153 1192 1191
1219 1153 1154 1193 1192
1220 1154 1155 1194 1193
1221 1155 1156 1195 1194
1222 1156 1157 1196 1195
1223 1157 1158 1197 1196
1224 1158 1159 1198 1197
1225 1159 1160 1199 1198
1226 1160 1161 1200 1199
1227 1161 1162 1201 1200
1228 1162 1163 1202 1201
1229 1163 1164 1203 1202
1230 1164 1165 1204 1203
1231 1165 1166 1205 1204
1232 1166 1167 1206 1205
1233 1167 1168 1207 1206
1234 1168 1169 1208 1207
1235 1169 1170 1209 1208
1236 1170 1171 1210 1209
1237 1171 1172 1211 1210
1238 1172 1173 1212 1211
1239 1173 1174 1213 1212
1240 1174 70 71 1213
1241 135 1175 1214 134
1242 1175 1176 1215 1214
1243 1176 1177 1216 1215
1244 1177 1178 1217 1216
1245 1178 1179 1218 1217
1246 1179 1180 1219 1218
1247 1180 1181 1220 1219
1248 1181 1182 1221 1220
1249 1182 1183 1222 1221
1250 1183 1184 1223 1222
1251 1184 1185 1224 1223
1252 1185 1186 1225 1224
1253 1186 1187 1226 1225
1254 1187 1188 1227 1226
1255 1188 1189 1228 1227
1256 1189 1190 1229 1228
1257 1190 1191 1230 1229
1258 1191 1192 1231 1230
1259 1192 1193 1232 1231
1260 1193 1194 1233 1232
1261 1194 1195 1234 1233
1262 1195 1196 1235 1234
1263 1196 1197 1236 1235
1264 1197 1198 1237 1236
1265 1198 1199 1238 1237
1266 1199 1200 1239 1238
1267 1200 1201 1240 1239
1268 1201 1202 1241 1240
1269 1202 1203 1242 1241
1270 1203 1204 1243 1242
1271 1204 1205 1244 1243
1272 1205 1206 1245 1244
1273 1206 1207 1246 1245
1274 1207 1208 1247 1246
1275 1208 1209 1248 1247
1276 1209 1210 1249 1248
1277 1210 1211 1250 1249
1278 1211 1212 1251 1250
1279 1212 1213 1252 1251
1280 1213 71 72 1252
1281 134 1214 1253 133
1282 1214 1215 1254 1253
1283 1215 1216 1255 1254
1284 1216 1217 1256 1255
1285 1217 1218 1257 1256
1286 1218 1219 1258 1257
1287 1219 1220 1259 1258
1288 1220 1221 1260 1259
1289 1221 1222 1261 1260
1290 1222 1223 1262 1261
1291 1223 1224 1263 1262
1292 1224 1225 1264 1263
1293 1225 1226 1265 1264
1294 1226 1227 1266 1265
1295 1227 1228 1267 1266
1296 1228 1229 1268 1267
1297 1229 1230 1269 1268
1298 1230 1231 1270 1269
1299 1231 1232 1271 1270
1300 1232 1233 1272 1271
1301 1233 1234 1273 1272
1302 1234 1235 1274 1273
1303 1235 1236 1275 1274
1304 1236 1237 1276 1275
1305 1237 1238 1277 1276
1306 1238 1239 1278 1277
1307 1239 1240 1279 1278
1308 1240 1241 1280 1279
1309 1241 1242 1281 1280
1310 1242 1243 1282 1281
1311 1243 1244 1283 1282
1312 1244 1245 1284 1283
1313 1245 1246 1285 1284
1314 1246 1247 1286 1285
1315 1247 1248 1287 1286
1316 1248 1249 1288 1287
1317 1249 1250 1289 1288
1318 1250 1251 1290 1289
1319 1251 1252 1291 1290
1320 1252 72 73 1291
1321 133 1253 1292 132
1322 1253 1254 1293 1292
1323 1254 1255 1294 1293
1324 1255 1256 1295 1294
1325 1256 1257 1296 1295
1326 1257 1258 1297 1296
1327 1258 1259 1298 1297
1328 1259 1260 1299 1298
1329 1260 1261 1300 1299
1330 1261 1262 1301 1300
1331 1262 1263 1302 1301
1332 1263 1264 1303 1302
1333 1264 1265 1304 1303
1334 1265 1266 1305 1304
1335 1266 1267 1306 1305
1336 1267 1268 1307 1306
1337 1268 1269 1308 1307
1338 1269 1270 1309 1308
1339 1270 1271 1310 1309
1340 1271 1272 1311 1310
1341 1272 1273 1312 1311
1342 1273 1274 1313 1312
1343 1274 1275 1314 1313
1344 1275 1276 1315 1314
1345 1276 1277 1316 1315
1346 1277 1278 1317 1316
1347 1278 1279 1318 1317
1348 1279 1280 1319 1318
1349 1280 1281 1320 1319
1350 1281 1282 1321 1320
1351 1282 1283 1322 1321
1352 1283 1284 1323 1322
1353 1284 1285 1324 1323
1354 1285 1286 1325 1324
1355 1286 1287 1326 1325
1356 1287 1288 1327 1326
1357 1288 1289 1328 1327
1358 1289 1290 1329 1328
1359 1290 1291 1330 1329
1360 1291 73 74 1330
1361 132 1292 1331 131
1362 1292 1293 1332 1331
1363 1293 1294 1333 1332
1364 1294 1295 1334 1333
1365 1295 1296 1335 1334
1366 1296 1297 1336 1335
1367 1297 1298 1337 1336
1368 1298 1299 1338 1337
1369 1299 1300 1339 1338
1370 1300 1301 1340 1339
1371 1301 1302 1341 1340
1372 1302 1303 1342 1341
1373 1303 1304 1343 1342
1374 1304 1305 1344 1343
1375 1305 1306 1345 1344
1376 1306 1307 1346 1345
1377 1307 1308 1347 1346
1378 1308 1309 1348 1347
1379 1309 1310 1349 1348
1380 1310 1311 1350 1349
1381 1311 1312 1351 1350
1382 1312 1313 1352 1351
1383 1313 1314 1353 1352
1384 1314 1315 1354 1353
1385 1315 1316 1355 1354
1386 1316 1317 1356 1355
1387 1317 1318 1357 1356
1388 1318 1319 1358 1357
1389 1319 1320 1359 1358
1390 1320 1321 1360 1359
1391 1321 1322 1361 1360
1392 1322 1323 1362 1361
1393 1323 1324 1363 1362
1394 1324 1325 1364 1363
1395 1325 1326 1365 1364
1396 1326 1327 1366 1365
1397 1327 1328 1367 1366
1398 1328 1329 1368 1367
1399 1329 1330 1369 1368
1400 1330 74 75 1369
1401 131 1331 1370 130
1402 1331 1332 1371 1370
1403 1332 1333 1372 1371
1404 1333 1334 1373 1372
1405 1334 1335 1374 1373
1406 1335 1336 1375 1374
1407 1336 1337 1376 1375
1408 1337 1338 1377 1376
1409 1338 1339 1378 1377
1410 1339 1340 1379 1378
1411 1340 1341 1380 1379
1412 1341 1342 1381 1380
1413 1342 1343 1382 1381
1414 1343 1344 1383 1382
1415 1344 1345 1384 1383
1416 1345 1346 1385 1384
1417 1346 1347 1386 1385
1418 1347 1348 1387 1386
1419 1348 1349 1388 1387
1420 1349 1350 1389 1388
1421 1350 1351 1390 1389
1422 1351 1352 1391 1390
1423 1352 1353 1392 1391
1424 1353 1354 1393 1392
1425 1354 1355 1394 1393
1426 1355 1356 1395 1394
1427 1356 1357 1396 1395
1428 1357 1358 1397 1396
1429 1358 1359 1398 1397
1430 1359 1360 1399 1398
1431 1360 1361 1400 1399
1432 1361 1362 1401 1400
1433 1362 1363 1402 1401
1434 1363 1364 1403 1402
1435 1364 1365 1404 1403
1436 1365 1366 1405 1404
1437 1366 1367 1406 1405
1438 1367 1368 1407 1406
1439 1368 1369 1408 1407
1440 1369 75 76 1408
1441 130 1370 1409 129
1442 1370 1371 1410 1409
1443 1371 1372 1411 1410
1444 1372 1373 1412 1411
1445 1373 1374 1413 1412
1446 1374 1375 1414 1413
1447 1375 1376 1415 1414
1448 1376 1377 1416 1415
1449 1377 1378 1417 1416
1450 1378 1379 1418 1417
1451 1379 1380 1419 1418
1452 1380 1381 1420 1419
1453 1381 1382 1421 1420
1454 1382 1383 1422 1421
1455 1383 1384 1423 1422
1456 1384 1385 1424 1423
1457 1385 1386 1425 1424
1458 1386 1387 1426 1425
1459 1387 1388 1427 1426
1460 1388 1389 1428 1427
1461 1389 1390 1429 1428
1462 1390 1391 1430 1429
1463 1391 1392 1431 1430
1464 1392 1393 1432 1431
1465 1393 1394 1433 1432
1466 1394 1395 1434 1433
1467 1395 1396 1435 1434
1468 1396 1397 1436 1435
1469 1397 1398 1437 1436
1470 1398 1399 1438 1437
1471 1399 1400 1439 1438
1472 1400 1401 1440 1439
1473 1401 1402 1441 1440
1474 1402 1403 1442 1441
1475 1403 1404 1443 1442
1476 1404 1405 1444 1443
1477 1405 1406 1445 1444
1478 1406 1407 1446 1445
1479 1407 1408 1447 1446
1480 1408 76 77 1447
1481 129 1409 1448 128
1482 1409 1410 1449 1448
1483 1410 1411 1450 1449
1484 1411 1412 1451 1450
1485 1412 1413 1452 1451
1486 1413 1414 1453 1452
1487 1414 1415 1454 1453
1488 1415 1416 1455 1454
1489 1416 1417 1456 1455
1490 1417 1418 1457 1456
1491 1418 1419 1458 1457
1492 1419 1420 1459 1458
1493 1420 1421 1460 1459
1494 1421 1422 1461 1460
1495 1422 1423 1462 1461
1496 1423 1424 1463 1462
1497 1424 1425 1464 1463
1498 1425 1426 1465 1464
1499 1426 1427 1466 1465
1500 1427 1428 1467 1466
1501 1428 1429 1468 1467
1502 1429 1430 1469 1468
1503 1430 1431 1470 1469
1504 1431 1432 1471 1470
1505 1432 1433 1472 1471
1506 1433 1434 1473 1472
1507 1434 1435 1474 1473
1508 1435 1436 1475 1474
1509 1436 1437 1476 1475
1510 1437 1438 1477 1476
1511 1438 1439 1478 1477
1512 1439 1440 1479 1478
1513 1440 1441 1480 1479
1514 1441 1442 1481 1480
1515 1442 1443 1482 1481
1516 1443 1444 1483 1482
1517 1444 1445 1484 1483
1518 1445 1446 1485 1484
1519 1446 1447 1486 1485
1520 1447 77 78 1486
1521 128 1448 1487 127
1522 1448 1449 1488 1487
1523 1449 1450 1489 1488
1524 1450 1451 1490 1489
1525 1451 1452 1491 1490
1526 1452 1453 1492 1491
1527 1453 1454 1493 1492
1528 1454 1455 1494 1493
1529 1455 1456 1495 1494
1530 1456 1457 1496 1495
1531 1457 1458 1497 1496
1532 1458 1459 1498 1497
1533 1459 1460 1499 1498
1534 1460 1461 1500 1499
1535 1461 1462 1501 1500
1536 1462 1463 1502 1501
1537 1463 1464 1503 1502
1538 1464 1465 1504 1503
1539 1465 1466 1505 1504
1540 1466 1467 1506 1505
1541 1467 1468 1507 1506
1542 1468 1469 1508 1507
1543 1469 1470 1509 1508
1544 1470 1471 1510 1509
1545 1471 1472 1511 1510
1546 1472 1473 1512 1511
1547 1473 1474 1513 1512
1548 1474 1475 1514 1513
1549 1475 1476 1515 1514
1550 1476 1477 1516 1515
1551 1477 1478 1517 1516
1552 1478 1479 1518 1517
1553 1479 1480 1519 1518
1554 1480 1481 1520 1519
1555 1481 1482 1521 1520
1556 1482 1483 1522 1521
1557 1483 1484 1523 1522
1558 1484 1485 1524 1523
1559 1485 1486 1525 1524
1560 1486 78 79 1525
1561 127 1487 1526 126
1562 1487 1488 1527 1526
1563 1488 1489 1528 1527
1564 1489 1490 1529 1528
1565 1490 1491 1530 1529
1566 1491 1492 1531 1530
1567 1492 1493 1532 1531
1568 1493 1494 1533 1532
1569 1494 1495 1534 1533
1570 1495 1496 1535 1534
1571 1496 1497 1536 1535
1572 1497 1498 1537 1536
1573 1498 1499 1538 1537
1574 1499 1500 1539 1538
1575 1500 1501 1540 1539
1576 1501 1502 1541 1540
1577 1502 1503 1542 1541
1578 1503 1504 1543 1542
1579 1504 1505 1544 1543
1580 1505 1506 1545 1544
1581 1506 1507 1546 1545
1582 1507 1508 1547 1546
1583 1508 1509 1548 1547
1584 1509 1510 1549 1548
1585 1510 1511 1550 1549
1586 1511 1512 1551 1550
1587 1512 1513 1552 1551
1588 1513 1514 1553 1552
1589 1514 1515 1554 1553
1590 1515 1516 1555 1554
1591 1516 1517 1556 1555
1592 1517 1518 1557 1556
1593 1518 1519 1558 1557
1594 1519 1520 1559 1558
1595 1520 1521 1560 1559
1596 1521 1522 1561 1560
1597 1522 1523 1562 1561
1598 1523 1524 1563 1562
1599 1524 1525 1564 1563
1600 1525 79 80 1564
1601 126 1526 1565 125
1602 1526 1527 1566 1565
1603 1527 1528 1567 1566
1604 1528 1529 1568 1567
1605 1529 1530 1569 1568
1606 1530 1531 1570 1569
1607 1531 1532 1571 1570
1608 1532 1533 1572 1571
1609 1533 1534 1573 1572
1610 1534 1535 1574 1573
1611 1535 1536 1575 1574
1612 1536 1537 1576 1575
1613 1537 1538 1577 1576
1614 1538 1539 1578 1577
1615 1539 1540 1579 1578
1616 1540 1541 1580 1579
1617 1541 1542 1581 1580
1618 1542 1543 1582 1581
1619 1543 1544 1583 1582
1620 1544 1545 1584 1583
1621 1545 1546 1585 1584
1622 1546 1547 1586 1585
1623 1547 1548 1587 1586
1624 1548 1549 1588 1587
1625 1549 1550 1589 1588
1626 1550 1551 1590 1589
1627 1551 1552 1591 1590
1628 1552 1553 1592 1591
1629 1553 1554 1593 1592
1630 1554 1555 1594 1593
1631 1555 1556 1595 1594
1632 1556 1557 1596 1595
1633 1557 1558 1597 1596
1634 1558 1559 1598 1597
1635 1559 1560 1599 1598
1636 1560 1561 1600 1599
1637 1561 1562 1601 1600
1638 1562 1563 1602 1601
1639 1563 1564 1603 1602
1640 1564 80 81 1603
1641 125 1565 1604 124
1642 1565 1566 1605 1604
1643 1566 1567 1606 1605
1644 1567 1568 1607 1606
1645 1568 1569 1608 1607
1646 1569 1570 1609 1608
1647 1570 1571 1610 1609
1648 1571 1572 1611 1610
1649 1572 1573 1612 1611
1650 1573 1574 1613 1612
1651 1574 1575 1614 1613
1652 1575 1576 1615 1614
1653 1576 1577 1616 1615
1654 1577 1578 1617 1616
1655 1578 1579 1618 1617
1656 1579 1580 1619 1618
1657 1580 1581 1620 1619
1658 1581 1582 1621 1620
1659 1582 1583 1622 1621
1660 1583 1584 1623 1622
1661 1584 1585 1624 1623
1662 1585 1586 1625 1624
1663 1586 1587 1626 1625
1664 1587 1588 1627 1626
1665 1588 1589 1628 1627
1666 1589 1590 1629 1628
1667 1590 1591 1630 1629
1668 1591 1592 1631 1630
1669 1592 1593 1632 1631
1670 1593 1594 1633 1632
1671 1594 1595 1634 1633
1672 1595 1596 1635 1634
1673 1596 1597 1636 1635
1674 1597 1598 1637 1636
1675 1598 1599 1638 1637
1676 1599 1600 1639 1638
1677 1600 1601 1640 1639
1678 1601 1602 1641 1640
1679 1602 1603 1642 1641
1680 1603 81 82 1642
1681 124 1604 1643 123
1682 1604 1605 1644 1643
1683 1605 1606 1645 1644
1684 1606 1607 1646 1645
1685 1607 1608 1647 1646
1686 1608 1609 1648 1647
1687 1609 1610 1649 1648
1688 1610 1611 1650 1649
1689 1611 1612 1651 1650
1690 1612 1613 1652 1651
1691 1613 1614 1653 1652
1692 1614 1615 1654 1653
1693 1615 1616 1655 1654
1694 1616 1617 1656 1655
1695 1617 1618 1657 1656
1696 1618 1619 1658 1657
1697 1619 1620 1659 1658
1698 1620 1621 1660 1659
1699 1621 1622 1661 1660
1700 1622 1623 1662 1661
1701 1623 1624 1663 1662
1702 1624 1625 1664 1663
1703 1625 1626 1665 1664
1704 1626 1627 1666 1665
1705 1627 1628 1667 1666
1706 1628 1629 1668 1667
1707 1629 1630 1669 1668
1708 1630 1631 1670 1669
1709 1631 1632 1671 1670
1710 1632 1633 1672 1671
1711 1633 1634 1673 1672
1712 1634 1635 1674 1673
1713 1635 1636 1675 1674
1714 1636 1637 1676 1675
1715 1637 1638 1677 1676
1716 1638 1639 1678 1677
1717 1639 1640 1679 1678
1718 1640 1641 1680 1679
1719 1641 1642 1681 1680
1720 1642 82 83 1681
1721 123 1643 122 4
1722 1643 1644 121 122
1723 1644 1645 120 121
1724 1645 1646 119 120
1725 1646 1647 118 119
1726 1647 1648 117 118
1727 1648 1649 116 117
1728 1649 1650 115 116
1729 1650 1651 114 115
1730 1651 1652 113 114
1731 1652 1653 112 113
1732 1653 1654 111 112
1733 1654 1655 110 111
1734 1655 1656 109 110
1735 1656 1657 108 109
1736 1657 1658 107 108
1737 1658 1659 106 107
1738 1659 1660 105 106
1739 1660 1661 104 105
1740 1661 1662 103 104
1741 1662 1663 102 103
1742 1663 1664 101 102
1743 1664 1665 100 101
1744 1665 1666 99 100
1745 1666 1667 98 99
1746 1667 1668 97 98
1747 1668 1669 96 97
1748 1669 1670 95 96
1749 1670 1671 94 95
1750 1671 1672 93 94
1751 1672 1673 92 93
1752 1673 1674 91 92
1753 1674 1675 90 91
1754 1675 1676 89 90
1755 1676 1677 88 89
1756 1677 1678 87 88
1757 1678 1679 86 87
1758 1679 1680 85 86
1759 1680 1681 84 85
1760 1681 83 3 84
$EndElements
